<svg id="Layer_1" data-name="Layer 1" xmlns="http://www.w3.org/2000/svg" xmlns:xlink="http://www.w3.org/1999/xlink" viewBox="0 0 359.78 344.11"><defs><linearGradient id="linear-gradient" x1="6563.74" y1="196.96" x2="6454.34" y2="174.52" gradientTransform="matrix(-1, 0, 0, 1, 6783.04, 0)" gradientUnits="userSpaceOnUse"><stop offset="0.01"/><stop offset="0.83" stop-opacity="0.07"/><stop offset="1" stop-opacity="0"/></linearGradient><linearGradient id="linear-gradient-2" x1="6555.66" y1="194.55" x2="6495.89" y2="182.29" xlink:href="#linear-gradient"/><linearGradient id="linear-gradient-3" x1="6601.57" y1="274" x2="6595.56" y2="183.82" xlink:href="#linear-gradient"/><linearGradient id="linear-gradient-4" x1="6583.93" y1="264.7" x2="6515.8" y2="249.87" xlink:href="#linear-gradient"/><linearGradient id="linear-gradient-5" x1="6614.84" y1="222.98" x2="6612.84" y2="159.26" xlink:href="#linear-gradient"/><linearGradient id="linear-gradient-6" x1="6523.19" y1="183.67" x2="6645.02" y2="186.87" gradientTransform="matrix(-1, 0, 0, 1, 6763.65, -3.06)" xlink:href="#linear-gradient"/><linearGradient id="linear-gradient-7" x1="6570.69" y1="140.16" x2="6566.68" y2="113.18" xlink:href="#linear-gradient"/><linearGradient id="linear-gradient-8" x1="6540.26" y1="123.75" x2="6577.8" y2="118.54" xlink:href="#linear-gradient"/><linearGradient id="linear-gradient-9" x1="6574.65" y1="119.63" x2="6589.17" y2="119.63" gradientTransform="matrix(-1, 0, 0, 1, 6763.65, -3.06)" gradientUnits="userSpaceOnUse"><stop offset="0.02" stop-color="#fff" stop-opacity="0"/><stop offset="0.39" stop-color="#fff" stop-opacity="0.39"/><stop offset="1" stop-color="#fff"/></linearGradient><linearGradient id="linear-gradient-10" x1="6559.89" y1="158.6" x2="6532.84" y2="149.98" xlink:href="#linear-gradient"/><linearGradient id="linear-gradient-11" x1="6572.13" y1="131.66" x2="6582.15" y2="172.74" gradientTransform="matrix(-1, 0, 0, 1, 6763.65, -3.06)" xlink:href="#linear-gradient"/><linearGradient id="linear-gradient-12" x1="6548.31" y1="137.48" x2="6558.33" y2="178.55" xlink:href="#linear-gradient"/><linearGradient id="linear-gradient-13" x1="6557.03" y1="181.98" x2="6554.02" y2="157.54" xlink:href="#linear-gradient"/><linearGradient id="linear-gradient-14" x1="6554.68" y1="134.49" x2="6531.03" y2="183.39" gradientTransform="matrix(-1, 0, 0, 1, 6763.65, -3.06)" xlink:href="#linear-gradient"/><linearGradient id="linear-gradient-15" x1="6583.83" y1="148.59" x2="6560.19" y2="197.48" gradientTransform="matrix(-1, 0, 0, 1, 6763.65, -3.06)" xlink:href="#linear-gradient"/><linearGradient id="linear-gradient-16" x1="6551.69" y1="189.82" x2="6557.3" y2="235.51" gradientTransform="matrix(-1, 0, 0, 1, 6763.65, -3.06)" xlink:href="#linear-gradient"/><linearGradient id="linear-gradient-17" x1="6550.93" y1="180.03" x2="6557.61" y2="216.36" xlink:href="#linear-gradient"/><linearGradient id="linear-gradient-18" x1="6564.02" y1="177.62" x2="6570.7" y2="213.96" xlink:href="#linear-gradient"/><linearGradient id="linear-gradient-19" x1="6576.38" y1="175.35" x2="6583.06" y2="211.69" xlink:href="#linear-gradient"/><linearGradient id="linear-gradient-20" x1="6501.41" y1="257.41" x2="6559.32" y2="268.43" xlink:href="#linear-gradient"/><linearGradient id="linear-gradient-21" x1="6564.1" y1="202.31" x2="6565.04" y2="246.26" xlink:href="#linear-gradient"/><linearGradient id="linear-gradient-22" x1="6495.84" y1="174.56" x2="6525.36" y2="225.32" xlink:href="#linear-gradient"/><linearGradient id="linear-gradient-23" x1="6516.49" y1="171.53" x2="6503.4" y2="213.74" xlink:href="#linear-gradient"/><linearGradient id="linear-gradient-24" x1="6603.17" y1="141.05" x2="6584.74" y2="268.09" xlink:href="#linear-gradient"/><linearGradient id="linear-gradient-25" x1="6583.22" y1="267.21" x2="6536.78" y2="267.97" xlink:href="#linear-gradient"/></defs><title>Military</title><path d="M366.52,269.58c-14.88,27.73-41.34,50.35-70.85,62.48-46.78,19.23-99.48,17.05-149.58,10.14-38.42-5.29-79.48-14.87-104.71-44.32A89.81,89.81,0,0,1,23,262.54c-8-29.83-2.43-64.06,13.63-91.07,12.06-20.29,29.06-37.25,41.61-57.24,19.26-30.68,35.47-68.79,69-86.59,35.85-19,98.21-38.21,134.5-11.23,11.79,8.76,19.46,21.87,26.6,34.71q27.38,49.22,50.85,100.46c9.52,20.78,18.69,42.35,19.8,65.17C380,235.4,375.22,253.36,366.52,269.58Z" transform="translate(-19.39 -3.06)" fill="#245c93" opacity="0.18" style="isolation:isolate"/><path d="M366.52,269.58c-14.88,27.73-41.34,50.35-70.85,62.48-46.78,19.23-99.48,17.05-149.58,10.14-38.42-5.29-79.48-14.87-104.71-44.32A89.81,89.81,0,0,1,23,262.54Z" transform="translate(-19.39 -3.06)" fill="#245c93" opacity="0.54" style="isolation:isolate"/><path d="M257.14,134.58c6-1,12.09,0,18.06,1a8.26,8.26,0,0,1,3.07.94,6.53,6.53,0,0,1,2,2.22c3.72,6.08,2.69,13.8,2.1,20.92a135.72,135.72,0,0,0,5.34,50.6c1.91,6.33,4.29,13.19,1.88,19.35-1.72,4.42-5.75,7.66-10.2,9.32s-9.29,1.92-14,1.74c-5.37-.2-11-1.07-15.12-4.56a19.76,19.76,0,0,1-5.4-8.43c-2.3-6.4-2.5-13.32-2.69-20.11l-.91-34.15c-.23-8.59-1.56-18.92.58-27.33C243.47,139.73,251.1,135.58,257.14,134.58Z" transform="translate(-19.39 -3.06)" fill="#245c93"/><path d="M241.26,173.45q.47,17.07.91,34.14c.19,6.78.39,13.72,2.69,20.11a19.66,19.66,0,0,0,5.4,8.42,18.7,18.7,0,0,0,9,3.94,42.59,42.59,0,0,0,6.16.63c4.74.18,9.59-.07,14-1.73s8.47-4.91,10.2-9.33c2.41-6.17,0-13-1.88-19.35a135.72,135.72,0,0,1-5.34-50.6c.59-7.11,1.62-14.84-2.1-20.92a6.53,6.53,0,0,0-2-2.22,8.27,8.27,0,0,0-3.06-.94c-6-1-12.09-2-18.06-1a24,24,0,0,0-9.28,3.74,14,14,0,0,0-6,7.8C239.7,154.52,241,164.85,241.26,173.45Z" transform="translate(-19.39 -3.06)" fill="url(#linear-gradient)"/><path d="M241.26,173.45q.47,17.07.91,34.14c.19,6.78.39,13.72,2.69,20.11a19.66,19.66,0,0,0,5.4,8.42,18.7,18.7,0,0,0,9,3.94,15.73,15.73,0,0,0,6.08-7.23c2.41-6.16,0-13-1.88-19.34a136,136,0,0,1-5.35-50.61c.6-7.11,1.63-14.83-2.1-20.92a6.6,6.6,0,0,0-2-2.22,8.5,8.5,0,0,0-3.07-.93l-3-.5a14,14,0,0,0-6,7.8C239.7,154.52,241,164.85,241.26,173.45Z" transform="translate(-19.39 -3.06)" fill="url(#linear-gradient-2)"/><path d="M127,291.17c0,6.48,33.19,11.73,74.14,11.73s74.14-5.25,74.14-11.73-33.2-11.74-74.14-11.74S127,284.68,127,291.17Z" transform="translate(-19.39 -3.06)" opacity="0.4"/><path d="M205.51,211.23c-3.95-1.21-7.83-4.48-11.24-6.49q-8.42-5-16.91-9.77a29.52,29.52,0,0,0-7.2-3.26,23.42,23.42,0,0,0-9.58,0c-5.45.93-11.42,3.27-13.41,8.42-2,5.31,1,11,2.53,16.5a32.91,32.91,0,0,1,.9,14c-.36,2.43-1,4.89-.58,7.3a16.68,16.68,0,0,0,1.31,3.81,33,33,0,0,0,3.88,7h19.46c1.05,0,2.11-3.15,2.27-3.85a21.66,21.66,0,0,0-.05-6.43,39.61,39.61,0,0,1,1-12.56c10.93,6.9,20.82,16.26,33.4,19.24,2.68.63,6.74,2.28,9.46,2,2.34-.2,2.34-1.65,2.41-3.64.14-4,.18-8,.27-11.92,0-1.2.62-18.48.43-18.49-5.46-.5-11-.87-16.4-1.49A10.46,10.46,0,0,1,205.51,211.23Z" transform="translate(-19.39 -3.06)" fill="#245c93"/><path d="M149.7,216.64a33.11,33.11,0,0,1,.91,14c-.37,2.42-1,4.88-.59,7.29a16.21,16.21,0,0,0,1.31,3.81,33,33,0,0,0,3.88,7h19.47c1,0,2.1-3.15,2.26-3.85.47-2.09.11-4.34-.05-6.43a39.61,39.61,0,0,1,1-12.56c10.93,6.9,20.82,16.26,33.4,19.24,2.64.62,6.6,2.23,9.32,2h.14c2.33-.21,2.33-1.65,2.41-3.64,0-.64.05-1.28.06-1.93.07-2.27.11-4.55.15-6.82l.06-3.17c0-1.2.62-18.47.43-18.49-5.46-.49-11-.87-16.4-1.49a10.43,10.43,0,0,1-2-.41c-3.95-1.22-7.83-4.49-11.24-6.49q-8.42-5-16.9-9.78a29.42,29.42,0,0,0-7.21-3.26,23.25,23.25,0,0,0-9.58,0c-5.45.93-11.42,3.27-13.41,8.42C145.12,205.44,148.12,211.18,149.7,216.64Z" transform="translate(-19.39 -3.06)" fill="url(#linear-gradient-3)"/><polygon points="172.3 158.27 196.63 158.27 196.63 143.18 175.33 144.3 172.3 158.27" fill="#245c93"/><polygon points="209.75 135.14 210.97 140.28 201.82 151.78 195.04 151.78 192.03 145.1 197.86 134.57 209.75 135.14" fill="#a88074"/><path d="M252.76,299.45h.14a9.51,9.51,0,0,0,9.51-9.51V269.28a3.62,3.62,0,0,0-3.61-3.62h-6a3.62,3.62,0,0,0-3.61,3.62v26.55A3.62,3.62,0,0,0,252.76,299.45Z" transform="translate(-19.39 -3.06)" fill="#1c1c1c"/><rect x="220.68" y="103.57" width="0.67" height="30.59" fill="#29351e"/><rect x="214.19" y="136.12" width="11" height="15.05" fill="#29351e"/><rect x="217.72" y="134.16" width="5.93" height="1.96" fill="#0f140b"/><rect x="220.09" y="101.07" width="1.83" height="2.5" fill="#161c0f"/><path d="M243.92,302.9c-7.91,0-13.95-5.19-17-12.38-2.55-6-2.91-12.78-2.88-19.34,0-7.33.27-14.76-1-22L222,211.47l23.37,2.46c2.32.24,10.68-.26,12.41,1.45s-1.81,8.69-2.36,11a43.11,43.11,0,0,0-1.36,13.61c.38,4.62,1.77,9.1,2.56,13.67A104.69,104.69,0,0,1,257.79,266l.63,11.75c.33,6.35-1.1,10.39-3.41,16.06C253,298.86,250.05,302.9,243.92,302.9Z" transform="translate(-19.39 -3.06)" fill="#245c93"/><path d="M222,211.47l.84,30.05.22,7.67c1.24,7.23,1,14.66,1,22a69.66,69.66,0,0,0,.69,11.37.59.59,0,0,0,0,.14c.16,1,.37,2,.61,3.05a32.54,32.54,0,0,0,1.56,4.78q.42,1,.9,1.89c3.25,6.19,8.9,10.49,16.09,10.49,6.12,0,9-4,11.09-9.09,2.31-5.67,3.74-9.71,3.4-16.06-.2-3.91-.41-7.84-.62-11.75a105.05,105.05,0,0,0-1.15-12.4c-.79-4.57-2.18-9-2.55-13.65a42.85,42.85,0,0,1,1.35-13.62c.55-2.26,4-9.36,2.36-11s-10.09-1.2-12.41-1.45Z" transform="translate(-19.39 -3.06)" fill="url(#linear-gradient-4)"/><path d="M144.81,148.83l4.68,7.74-6.18,4.76-4.69-9.56S144.15,149,144.81,148.83Z" transform="translate(-19.39 -3.06)" fill="#f4b9a7"/><polygon points="130.42 152.02 121.71 158.27 123.61 162 133.07 155.11 130.42 152.02" fill="#245c93"/><path d="M143,165.06c2.13,5.48,5.9,31.86,17.63,28.18,11.39-.77,34.69-15.85,34.69-15.85s-9.08-25.7-9.93-26.3c-2.57-.85-18.68,21.25-21,21.25-1.29.08-10.68-15-11.95-14.17S143.35,164,143,165.06Z" transform="translate(-19.39 -3.06)" fill="#245c93"/><path d="M148.66,174.13a28.52,28.52,0,0,0,.78,4.12,4.1,4.1,0,0,0,2.81,2.87c1.07.21,2.25-.19,3.23.29s1.35,1.56,2,2.35c1.53,1.79,4.38,1.88,6.52.88s3.74-2.83,5.35-4.55,3.39-3.45,5.65-4.1a22.84,22.84,0,0,0,2.84-.76c2.12-.95,3.06-3.36,4.2-5.38a19,19,0,0,1,7.38-7.27,7,7,0,0,1,3.35-1,3.12,3.12,0,0,1,2.88,1.71,4.47,4.47,0,0,1,.28,1.54l.7,9.59a3.17,3.17,0,0,1-.06,1.19,3.07,3.07,0,0,1-1,1.34c-4.4,3.88-9.8,6.41-15.11,8.9l-12.75,5.95c-3,1.4-6.25,2.84-9.49,2.18-4.36-.9-7.05-5.19-8.95-9.21a101.18,101.18,0,0,1-6-16c-1-3.47.68-2.9,2.51-.66A13.7,13.7,0,0,1,148.66,174.13Z" transform="translate(-19.39 -3.06)" fill="url(#linear-gradient-5)"/><polygon points="147.75 186.41 146.43 168.37 145.02 169.28 142.83 167.04 134.63 183.33 147.75 186.41" fill="#245c93"/><polygon points="233.75 169.27 234.76 203.48 232.56 206.58 186.04 204.47 183.82 202.42 170.5 161.6 175.68 156.56 230.5 159.2 233.75 169.27" fill="#245c93"/><polygon points="233.75 169.27 234.76 203.48 232.56 206.58 186.04 204.47 183.82 202.42 170.5 161.6 175.68 156.56 230.5 159.2 233.75 169.27" fill="url(#linear-gradient-6)"/><path d="M228.44,205.07h4.7a2.07,2.07,0,0,0,2.1-2.36l-2-18.09h-9.42l2,18.09A2.7,2.7,0,0,0,228.44,205.07Z" transform="translate(-19.39 -3.06)" fill="#245c93"/><path d="M197.91,178.88h10.94a1.37,1.37,0,0,0,1.38-1.6l-1-7H195.1l1,7A1.92,1.92,0,0,0,197.91,178.88Z" transform="translate(-19.39 -3.06)"/><path d="M198,173.76h9.23a1.35,1.35,0,0,0,1.37-1.59l-.42-3H195.8l.41,3A1.9,1.9,0,0,0,198,173.76Z" transform="translate(-19.39 -3.06)" fill="#212121"/><path d="M253.15,172.33l.15,5.82s-10,3.8-16.48,4.32-25.64-8.09-32.5-10.48a26.78,26.78,0,0,0-12.63-1.3l-1.8-6,5.18-5,54.82,2.65Z" transform="translate(-19.39 -3.06)" opacity="0.4"/><path d="M196.84,127.56s3.13,22.59,7.48,24.11c5.29,2.68,13.19-4.24,13.19-4.24l3.7-11.53-12.57-10.16Z" transform="translate(-19.39 -3.06)" fill="#f4b9a7"/><polygon points="193.65 132.38 185.78 147.41 186.75 149.23 197.35 135.14 193.65 132.38" fill="#3b3b3b"/><path d="M202.65,153.15h2.71a1.09,1.09,0,0,0,1-1.16v-1.2a1.08,1.08,0,0,0-1-1.15h-2.71a1.08,1.08,0,0,0-1,1.15V152A1.09,1.09,0,0,0,202.65,153.15Z" transform="translate(-19.39 -3.06)" fill="#0f0f0f"/><path d="M235.11,137.28c-.91.36,6.17-27.22-15.16-33-21.84-5.14-24.54,21.71-27.88,21.59.25,1.48,6.52,3.38,11,4.56a19.16,19.16,0,0,1,8.06,4.41,7,7,0,0,0,.92,1.28,8.07,8.07,0,0,0,5.11,2.64C228.89,140.25,236,136.94,235.11,137.28Z" transform="translate(-19.39 -3.06)" fill="#245c93"/><path d="M192.07,125.86c.25,1.49,6.52,3.39,11,4.57a19.21,19.21,0,0,1,8.06,4.41,7.69,7.69,0,0,0,.92,1.28,8.1,8.1,0,0,0,5.11,2.65,44.16,44.16,0,0,0,13.49-.28,21.31,21.31,0,0,0,4.47-1.21c-.92.35,6.17-27.22-15.16-33a21.92,21.92,0,0,0-6.63-.61C197.5,104.81,195,126,192.07,125.86Z" transform="translate(-19.39 -3.06)" fill="url(#linear-gradient-7)"/><path d="M204.27,125.78c-.07.46.58.67,1,.63,1.43-.14,2.7-1,4.11-1.26a10.53,10.53,0,0,1,3.07,0q6.65.66,13.2,1.9a5,5,0,0,1,1.84.6,3.93,3.93,0,0,1,1.3,1.7c1.06,2.36,1,5,1.13,7.6a1.92,1.92,0,0,0,.48,1.43,1,1,0,0,0,.19.12,21.31,21.31,0,0,0,4.47-1.21c-.92.35,6.17-27.22-15.16-33a21.92,21.92,0,0,0-6.63-.61,13,13,0,0,0,4.31,3.61,12.81,12.81,0,0,1,2.74,1.52,8.47,8.47,0,0,1,1.48,1.93c2.43,3.94,4.9,8,5.91,12.49-.14,1-1.46,1.1-2.42,1a80.86,80.86,0,0,1-8.46-1.61c-2.42-.61-5-1.32-7.37-.61a12.87,12.87,0,0,0-4.92,3.34A.83.83,0,0,0,204.27,125.78Z" transform="translate(-19.39 -3.06)" fill="url(#linear-gradient-8)"/><polygon points="176.92 110.47 174.48 117.8 178.72 122.36 184.37 122.68 187.84 120.3 189 116.34 187.84 112.53 182.57 110.47 176.92 110.47" fill="#245c93"/><polygon points="176.92 110.47 174.48 117.8 178.72 122.36 184.37 122.68 187.84 120.3 189 116.34 187.84 112.53 182.57 110.47 176.92 110.47" fill="url(#linear-gradient-9)"/><polygon points="192.29 117.58 216.15 120.27 216.62 123.87 191.1 120.95 192.29 117.58" fill="#121212"/><rect x="207.49" y="119.91" width="4.8" height="3.77" transform="translate(17.39 288.8) rotate(-74.62)"/><path d="M209.67,119.05c0-7.36-14.07-7.19-14.07-7.19l-.45,2.31s11.82-.42,12.34,4.21-1.8,7.49-8,6.76c-2.31-.48-3.47-4.35-6.23-5.2a20.93,20.93,0,0,1-.39,2.33c2-.13,3.54,3.81,6.24,4.28C204,127.73,209.67,126.41,209.67,119.05Z" transform="translate(-19.39 -3.06)" fill="#29351e"/><path d="M253.32,162.63s3.87-11.2-5-15.8c-7.71-4.66-17-4.46-17-4.46l-3.8,14.25Z" transform="translate(-19.39 -3.06)" fill="#245c93"/><path d="M253.32,162.63s3.87-11.2-5-15.8c-7.71-4.66-17-4.46-17-4.46l-3.8,14.25Z" transform="translate(-19.39 -3.06)" fill="url(#linear-gradient-10)"/><path d="M240.8,143s-6.08,4.13-6.08,16.13c0,2.11-12.58.95-11.47-1.41-.93-9.54,8-17,8-17Z" transform="translate(-19.39 -3.06)" fill="#245c93"/><polygon points="172.3 158.27 196.63 158.27 196.63 143.18 175.33 144.3 172.3 158.27" fill="url(#linear-gradient-11)"/><path d="M240.8,143s-6.08,4.13-6.08,16.13c0,2.11-12.58.95-11.47-1.41-.93-9.54,8-17,8-17Z" transform="translate(-19.39 -3.06)" fill="url(#linear-gradient-12)"/><polygon points="214.17 142.26 212.85 162.6 210.77 162.47 211.86 145.67 177.11 143.41 177.34 139.87 214.17 142.26" fill="#3e2822"/><polygon points="211.1 157.4 211.86 145.67 190.79 144.3 211.1 157.4" fill="#271915"/><path d="M207.43,169.19c25.9,14.44,40.06,7.08,40.06,7.08l-10.62-20.72s-18.51-4.09-28.48.79C208.39,157.63,207.23,166.91,207.43,169.19Z" transform="translate(-19.39 -3.06)" fill="#245c93"/><path d="M207.43,169.19c25.9,14.44,40.06,7.08,40.06,7.08l-10.62-20.72s-18.51-4.09-28.48.79C208.39,157.63,207.23,166.91,207.43,169.19Z" transform="translate(-19.39 -3.06)" fill="url(#linear-gradient-13)"/><polygon points="230.5 157.1 219.45 152.5 215.33 152.18 215.33 163.44 230.5 157.1" fill="#245c93"/><rect x="233.44" y="161.21" width="23.13" height="15.95" rx="5.92" transform="translate(-58.88 78.28) rotate(-17.47)"/><path d="M204.28,157.68c-2.38-.72-2.83-8.94-5.79-9.32-1-.27-1.79,2.31-1.79,2.31l-16.45.79s-1.42.84-1.16,1.95,5.14,2.14,5.14,2.14,3.09,9.43,4.63,10.5,14.77,1.2,14.77,1.2S204.53,158.43,204.28,157.68Z" transform="translate(-19.39 -3.06)" fill="#121212"/><polygon points="168.82 152.18 171.05 162.51 167.8 152.18 168.82 152.18"/><polygon points="183.7 164.8 188.04 166.13 189 153.28 183.73 153.28 183.7 164.8" fill="#245c93"/><polygon points="230.5 157.1 219.45 152.5 215.33 152.18 215.33 163.44 230.5 157.1" fill="url(#linear-gradient-14)"/><polygon points="183.7 164.8 188.04 166.13 189 153.28 183.73 153.28 183.7 164.8" fill="url(#linear-gradient-15)"/><polygon points="129.7 144.21 151.11 145.59 151 147.64 174.05 149.41 176.86 147.28 177.38 139.29 174.57 136.85 130.36 133.97 129.7 144.21" fill="#0a0a0a"/><polygon points="97.1 143.08 129.44 145.19 129.83 142.93 130.34 134.94 129.96 132.64 97.77 130.51 97.1 143.08" fill="#3e2822"/><polygon points="135.96 170.85 149.9 171.68 151.28 145.33 137.18 144.42 135.96 170.85" fill="#141414"/><polygon points="145.95 171.34 148.34 171.48 149.46 149.49 147.07 149.35 145.95 171.34" fill="#303030"/><polygon points="141.69 171.08 144.08 171.23 145.2 149.23 142.81 149.09 141.69 171.08" fill="#303030"/><polygon points="137.38 170.83 139.78 170.97 140.9 148.97 138.5 148.83 137.38 170.83" fill="#303030"/><polygon points="99.41 137.27 128.09 139.2 128.15 138.35 99.46 136.43 99.41 137.27" fill="#271915"/><rect x="105.61" y="132.19" width="2.68" height="18.7" transform="matrix(0.06, -1, 1, 0.06, -60.48, 236.24)" fill="#0a0a0a"/><rect x="91.63" y="136.79" width="4.29" height="7.76" transform="matrix(0.06, -1, 1, 0.06, -71.95, 222.29)" fill="#0a0a0a"/><polygon points="232.56 212.62 186.04 208.41 186.04 204.2 232.56 206.58 232.56 212.62" fill="#245c93"/><polygon points="232.56 212.62 186.04 208.41 186.04 204.2 232.56 206.58 232.56 212.62" fill="url(#linear-gradient-16)"/><path d="M214.9,205.07h4.7a2.08,2.08,0,0,0,2.11-2.36l-2-18.09h-9.42l2,18.09A2.7,2.7,0,0,0,214.9,205.07Z" transform="translate(-19.39 -3.06)" fill="#245c93"/><path d="M202.28,204.26H207a2.09,2.09,0,0,0,2.11-2.36l-2-18.09H197.7l2,18.09A2.71,2.71,0,0,0,202.28,204.26Z" transform="translate(-19.39 -3.06)" fill="#245c93"/><path d="M228.44,205.07h4.7a2.07,2.07,0,0,0,2.1-2.36l-2-18.09h-9.42l2,18.09A2.7,2.7,0,0,0,228.44,205.07Z" transform="translate(-19.39 -3.06)" fill="#245c93"/><path d="M214.9,205.07h4.7a2.08,2.08,0,0,0,2.11-2.36l-2-18.09h-9.42l2,18.09A2.7,2.7,0,0,0,214.9,205.07Z" transform="translate(-19.39 -3.06)" fill="#245c93"/><path d="M202.28,204.26H207a2.09,2.09,0,0,0,2.11-2.36l-2-18.09H197.7l2,18.09A2.71,2.71,0,0,0,202.28,204.26Z" transform="translate(-19.39 -3.06)" fill="#245c93"/><path d="M228.44,205.07h4.7a2.07,2.07,0,0,0,2.1-2.36l-2-18.09h-9.42l2,18.09A2.7,2.7,0,0,0,228.44,205.07Z" transform="translate(-19.39 -3.06)" fill="url(#linear-gradient-17)"/><path d="M214.9,205.07h4.7a2.08,2.08,0,0,0,2.11-2.36l-2-18.09h-9.42l2,18.09A2.7,2.7,0,0,0,214.9,205.07Z" transform="translate(-19.39 -3.06)" fill="url(#linear-gradient-18)"/><path d="M202.28,204.26H207a2.09,2.09,0,0,0,2.11-2.36l-2-18.09H197.7l2,18.09A2.71,2.71,0,0,0,202.28,204.26Z" transform="translate(-19.39 -3.06)" fill="url(#linear-gradient-19)"/><path d="M199.1,187.32h7.78a1.18,1.18,0,0,0,1.19-1.34l-.27-2.51H197.34l.27,2.51A1.54,1.54,0,0,0,199.1,187.32Z" transform="translate(-19.39 -3.06)" fill="#212121"/><path d="M211.47,187.58h7.78a1.18,1.18,0,0,0,1.19-1.34l-.27-2.51H209.71l.27,2.51A1.54,1.54,0,0,0,211.47,187.58Z" transform="translate(-19.39 -3.06)" fill="#212121"/><path d="M225,187.58h7.78a1.18,1.18,0,0,0,1.2-1.34l-.28-2.51H223.25l.27,2.51A1.53,1.53,0,0,0,225,187.58Z" transform="translate(-19.39 -3.06)" fill="#212121"/><rect x="195.16" y="204.59" width="7.17" height="5.43" fill="#2b1710"/><path d="M254.17,279.26c1.7.5,4.24,0,4.3-2.07l.82-28.25a2.5,2.5,0,0,0-2.6-2.39c-2.31-.07-4.53-1.61-6.58.24a6.28,6.28,0,0,0-1.8,4.54,25.44,25.44,0,0,0,.64,5,45.92,45.92,0,0,1,.67,10.47,26.66,26.66,0,0,0,.08,6.74c.44,2.05,2,4.61,4,5.55A3.86,3.86,0,0,0,254.17,279.26Z" transform="translate(-19.39 -3.06)" fill="#245c93"/><path d="M254.17,279.26c1.7.5,4.24,0,4.3-2.07l.82-28.25a2.5,2.5,0,0,0-2.6-2.39c-2.31-.07-4.53-1.61-6.58.24a6.28,6.28,0,0,0-1.8,4.54,25.44,25.44,0,0,0,.64,5,45.92,45.92,0,0,1,.67,10.47,26.66,26.66,0,0,0,.08,6.74c.44,2.05,2,4.61,4,5.55A3.86,3.86,0,0,0,254.17,279.26Z" transform="translate(-19.39 -3.06)" fill="url(#linear-gradient-20)"/><path d="M220.53,234.73h.33V213.12H216.1v18.14C216.1,233.17,218.08,234.73,220.53,234.73Z" transform="translate(-19.39 -3.06)" fill="#245c93"/><path d="M220.53,234.73h.33V213.12H216.1v18.14C216.1,233.17,218.08,234.73,220.53,234.73Z" transform="translate(-19.39 -3.06)" fill="url(#linear-gradient-21)"/><path d="M145.32,149.07l-1.25-2.23a3.66,3.66,0,0,0-.84-1,4.31,4.31,0,0,0-1.44-.79,10.88,10.88,0,0,0-6-.45c-1-1.86,2.52-4.6.76-6.23-.51-.37-3.62-.73-5.9-1a4.13,4.13,0,0,0-3.8,1.81l-.28.43a4,4,0,0,0-.68,2.25V144l-.5-.29a2.06,2.06,0,0,1-1-2.24v0a1.2,1.2,0,0,0-1.1-1.46h0a1.56,1.56,0,0,0-1.64,1.56v2a2.05,2.05,0,0,0,.81,1.63l4.32,3.57a3.21,3.21,0,0,0,1.92.75c2.5.11,7.56.62,9,2.78C137.85,153.23,145.32,149.07,145.32,149.07Z" transform="translate(-19.39 -3.06)" fill="#121212"/><polygon points="107.66 137.67 114.86 139.04 107.23 139.04 107.66 137.67"/><rect x="134.84" y="245.69" width="21.42" height="9.27" rx="0.79" fill="#121212"/><path d="M134,285.72a10.86,10.86,0,0,0,2.67.34l9.36.35a12.63,12.63,0,0,0,4.59-.39c1-.34,1.92-.93,2.92-1.31a3.73,3.73,0,0,1,3.1,0c.3.17.56.4.85.56a5,5,0,0,0,2.78.37,74.78,74.78,0,0,1,7.78,0c1.77.1,5.36,1,5.36-1.92V258H160.75a18.8,18.8,0,0,0-3.52,0c-1.68.34-1.48,1.56-2,3a12.65,12.65,0,0,1-6.72,7.49c-2.07.92-4.34,1.25-6.49,2a18.71,18.71,0,0,0-8.78,6.26,9,9,0,0,0-2,4.22,4.42,4.42,0,0,0,1.62,4.18A4.29,4.29,0,0,0,134,285.72Z" transform="translate(-19.39 -3.06)" fill="#1c1c1c"/><polygon points="97.77 130.51 97.1 143.08 96.03 143.08 96.61 130.51 97.77 130.51" fill="#0a0a0a"/><rect x="165.94" y="136.64" width="2.89" height="10.41" transform="translate(-4.19 296.84) rotate(-86.36)" fill="#303030"/><rect x="94.24" y="133.87" width="10.41" height="2.1" transform="matrix(0.06, -1, 1, 0.06, -60.87, 222.61)" fill="#0a0a0a"/><path d="M263.12,185.29a3.54,3.54,0,0,0-1.37,1.23,3.62,3.62,0,0,0-.32,1.53,53.06,53.06,0,0,0,2.35,19c.73,2.31,1.72,4.7,3.7,6.1a9.35,9.35,0,0,0,6.75,1.2,31.91,31.91,0,0,0,8.46-2.82c1.16-.52,2.41-1.17,2.84-2.36a4.86,4.86,0,0,0,0-2.51q-2-10.75-4.34-21.45a7,7,0,0,0-1.48-3.51c-1.53-1.57-5.85,0-7.8.33A26,26,0,0,0,263.12,185.29Z" transform="translate(-19.39 -3.06)" fill="url(#linear-gradient-22)"/><path d="M279.23,194.8a1.44,1.44,0,0,1-.61,1.12,1.47,1.47,0,0,1-.63.11c-3.75.06-7.58.12-11.15-1.05a4.38,4.38,0,0,1-1.42-.7,4.08,4.08,0,0,1-1.13-1.74,10.93,10.93,0,0,1-.73-4.16,1.76,1.76,0,0,1,.14-.79,2,2,0,0,1,1.19-.81,91.56,91.56,0,0,1,11.31-2.92c2.19-.47,3.46.23,3.58,2.43A37.92,37.92,0,0,1,279.23,194.8Z" transform="translate(-19.39 -3.06)" fill="url(#linear-gradient-23)"/><path d="M163.59,235.85c.25,2.68-.91,8.88.28,11.11a4.2,4.2,0,0,0,1.89,1.79h8.92c1,0,2.1-3.15,2.26-3.85.47-2.09.11-4.34-.05-6.43a39.61,39.61,0,0,1,1-12.56c10.93,6.9,20.82,16.26,33.4,19.24,2.64.62,6.6,2.23,9.32,2,.22-.43.42-.87.62-1.3l2-4.28c.53-1.13,1.05-2.26,1.57-3.38a3.09,3.09,0,0,0,.4-2.27,2,2,0,0,0-1.82-1.17,3.25,3.25,0,0,0-1.13.11c-1.12.31-2.09,1-3.22,1.27-4.86,1.08-7.86-6.27-12.82-6.65-1.69-.12-4.12.14-4.38-1.54.13-1.41,1.49-2.3,2.58-3.21s2-2.56,1.08-3.64a3,3,0,0,0-2-.83,41.83,41.83,0,0,0-9.81-.23,15.4,15.4,0,0,1-5.5,0c-3-.8-4.95-3.51-6.68-6l-6.14,4.9c-2.54-2.82-2.85-6.91-4-10.52s-4.12-7.43-7.86-6.81c-1.35,2.5,0,5.53,1.19,8.12s2.09,5.93.14,8c-1.09,1.16-2.94,1.67-3.53,3.15a4.92,4.92,0,0,0,.16,3.07A76.48,76.48,0,0,1,163.59,235.85Z" transform="translate(-19.39 -3.06)" fill="url(#linear-gradient-24)"/><path d="M223.08,249.19c1.24,7.23,1,14.66,1,22a69.66,69.66,0,0,0,.69,11.37.59.59,0,0,0,0,.14c.19,1,.4,2,.61,3.05.09.44.18.89.28,1.34a11.73,11.73,0,0,0,2.18,5.33,3.89,3.89,0,0,0,.34.36A10.33,10.33,0,0,0,233,295a18.08,18.08,0,0,1-.39-11.17,46,46,0,0,0,11.65,3.77c-.45-3-4.16-3.92-6.55-5.74-2.24-1.7-3.43-4.42-4.24-7.11-1.85-6.08-2.21-12.48-3.13-18.76-.42-2.82-1.87-14.75-5.37-15.54a1.87,1.87,0,0,0-2.09,1.09Z" transform="translate(-19.39 -3.06)" fill="url(#linear-gradient-25)"/></svg>