<svg id="Layer_1" data-name="Layer 1" xmlns="http://www.w3.org/2000/svg" xmlns:xlink="http://www.w3.org/1999/xlink" viewBox="0 0 390.05 254.72"><defs><linearGradient id="linear-gradient" x1="161.81" y1="112.3" x2="156.1" y2="121.18" gradientUnits="userSpaceOnUse"><stop offset="0.01"/><stop offset="0.13" stop-opacity="0.69"/><stop offset="1" stop-opacity="0"/></linearGradient><linearGradient id="linear-gradient-2" x1="176.86" y1="136.36" x2="161.21" y2="135.09" xlink:href="#linear-gradient"/><linearGradient id="linear-gradient-3" x1="142.99" y1="116.84" x2="139.98" y2="146.62" xlink:href="#linear-gradient"/><linearGradient id="linear-gradient-4" x1="125.65" y1="165.99" x2="166.47" y2="153.34" xlink:href="#linear-gradient"/><linearGradient id="linear-gradient-5" x1="293.29" y1="92.37" x2="300.27" y2="139.94" xlink:href="#linear-gradient"/><linearGradient id="linear-gradient-6" x1="210.54" y1="184.23" x2="210.12" y2="221.66" xlink:href="#linear-gradient"/><linearGradient id="linear-gradient-7" x1="202.85" y1="164.1" x2="222.33" y2="164.1" gradientTransform="matrix(-1, 0, 0, 1, 589.8, 0)" xlink:href="#linear-gradient"/><linearGradient id="linear-gradient-8" x1="234.29" y1="106.12" x2="230.49" y2="181.35" gradientTransform="matrix(-1, 0, 0, 1, 589.8, 0)" xlink:href="#linear-gradient"/><linearGradient id="linear-gradient-9" x1="44.88" y1="125.28" x2="44.99" y2="132.3" gradientTransform="translate(313.78 83.23) rotate(90)" xlink:href="#linear-gradient"/><linearGradient id="linear-gradient-10" x1="36.24" y1="132.65" x2="42.81" y2="125.84" gradientTransform="translate(163.77 -9.03) rotate(11.07)" xlink:href="#linear-gradient"/><linearGradient id="linear-gradient-11" x1="50.41" y1="121.38" x2="39.15" y2="125.67" gradientTransform="translate(163.77 -9.03) rotate(11.07)" gradientUnits="userSpaceOnUse"><stop offset="0.01" stop-color="#fff"/><stop offset="0.13" stop-color="#fff" stop-opacity="0.69"/><stop offset="1" stop-color="#fff" stop-opacity="0"/></linearGradient><linearGradient id="linear-gradient-12" x1="515.21" y1="227.32" x2="515.3" y2="233.2" gradientTransform="translate(-315.9 -104.52)" xlink:href="#linear-gradient"/><linearGradient id="linear-gradient-13" x1="507.97" y1="233.49" x2="513.47" y2="227.79" gradientTransform="translate(-365.17 153.59) rotate(-26.89)" xlink:href="#linear-gradient"/><linearGradient id="linear-gradient-14" x1="519.84" y1="224.05" x2="510.4" y2="227.65" gradientTransform="translate(-365.17 153.59) rotate(-26.89)" xlink:href="#linear-gradient-11"/><linearGradient id="linear-gradient-15" x1="155.29" y1="109.57" x2="155.38" y2="115.3" xlink:href="#linear-gradient"/><linearGradient id="linear-gradient-16" x1="174.06" y1="135.06" x2="179.42" y2="129.51" xlink:href="#linear-gradient"/><linearGradient id="linear-gradient-17" x1="185.62" y1="125.87" x2="176.43" y2="129.38" gradientTransform="matrix(1, 0, 0, 1, 0, 0)" xlink:href="#linear-gradient-11"/><linearGradient id="linear-gradient-18" x1="175.46" y1="138.32" x2="181.96" y2="119.93" xlink:href="#linear-gradient"/><linearGradient id="linear-gradient-19" x1="149.53" y1="109.01" x2="149.64" y2="116.03" xlink:href="#linear-gradient"/><linearGradient id="linear-gradient-20" x1="166.7" y1="135.86" x2="173.27" y2="129.05" xlink:href="#linear-gradient"/><linearGradient id="linear-gradient-21" x1="180.88" y1="124.59" x2="169.61" y2="128.88" gradientTransform="matrix(1, 0, 0, 1, 0, 0)" xlink:href="#linear-gradient-11"/><linearGradient id="linear-gradient-22" x1="168.57" y1="109.36" x2="168.66" y2="115.09" xlink:href="#linear-gradient"/><linearGradient id="linear-gradient-23" x1="187.34" y1="134.85" x2="192.7" y2="129.3" xlink:href="#linear-gradient"/><linearGradient id="linear-gradient-24" x1="198.9" y1="125.66" x2="189.71" y2="129.17" gradientTransform="matrix(1, 0, 0, 1, 0, 0)" xlink:href="#linear-gradient-11"/><linearGradient id="linear-gradient-25" x1="195.73" y1="139.36" x2="194.35" y2="119.9" xlink:href="#linear-gradient"/><linearGradient id="linear-gradient-26" x1="162.81" y1="108.8" x2="162.92" y2="115.82" xlink:href="#linear-gradient"/><linearGradient id="linear-gradient-27" x1="179.99" y1="135.65" x2="186.55" y2="128.84" xlink:href="#linear-gradient"/><linearGradient id="linear-gradient-28" x1="194.16" y1="124.38" x2="182.89" y2="128.68" gradientTransform="matrix(1, 0, 0, 1, 0, 0)" xlink:href="#linear-gradient-11"/><linearGradient id="linear-gradient-29" x1="72.86" y1="130.06" x2="72.97" y2="137.08" gradientTransform="translate(337.98 61.16) rotate(90)" xlink:href="#linear-gradient"/><linearGradient id="linear-gradient-30" x1="64.22" y1="137.43" x2="70.78" y2="130.62" gradientTransform="translate(154.88 -12.62) rotate(10.38)" xlink:href="#linear-gradient"/><linearGradient id="linear-gradient-31" x1="78.39" y1="126.16" x2="67.12" y2="130.45" gradientTransform="translate(154.88 -12.62) rotate(10.38)" xlink:href="#linear-gradient-11"/><linearGradient id="linear-gradient-32" x1="71.36" y1="162.7" x2="90.84" y2="162.7" xlink:href="#linear-gradient"/><linearGradient id="linear-gradient-33" x1="140.9" y1="124.11" x2="118.7" y2="235.11" xlink:href="#linear-gradient"/><linearGradient id="linear-gradient-34" x1="144.28" y1="134.08" x2="126.15" y2="224.7" xlink:href="#linear-gradient"/><linearGradient id="linear-gradient-35" x1="213.55" y1="82.7" x2="214.5" y2="151.21" xlink:href="#linear-gradient"/><linearGradient id="linear-gradient-36" x1="307.24" y1="299.81" x2="239.36" y2="143.13" xlink:href="#linear-gradient"/><linearGradient id="linear-gradient-37" x1="103.97" y1="104.76" x2="100.17" y2="180.04" xlink:href="#linear-gradient"/><linearGradient id="linear-gradient-38" x1="238.86" y1="67.94" x2="242.19" y2="113.3" xlink:href="#linear-gradient"/><linearGradient id="linear-gradient-39" x1="226.26" y1="97.74" x2="222.04" y2="100.04" xlink:href="#linear-gradient"/><linearGradient id="linear-gradient-40" x1="242.19" y1="141.76" x2="242.19" y2="92.28" xlink:href="#linear-gradient"/><linearGradient id="linear-gradient-41" x1="255.43" y1="100.64" x2="249.87" y2="87.72" xlink:href="#linear-gradient"/><linearGradient id="linear-gradient-42" x1="233.28" y1="90.73" x2="240.68" y2="96.28" xlink:href="#linear-gradient"/><linearGradient id="linear-gradient-43" x1="185.6" y1="165.52" x2="187.19" y2="128.09" xlink:href="#linear-gradient"/><linearGradient id="linear-gradient-44" x1="185.91" y1="162.26" x2="187.21" y2="131.56" xlink:href="#linear-gradient"/><linearGradient id="linear-gradient-45" x1="165.2" y1="140.33" x2="184.27" y2="140.33" xlink:href="#linear-gradient"/><linearGradient id="linear-gradient-46" x1="267.37" y1="58.3" x2="269.27" y2="139.18" xlink:href="#linear-gradient"/><linearGradient id="linear-gradient-47" x1="231.3" y1="401.77" x2="235.11" y2="217.17" xlink:href="#linear-gradient"/></defs><title>9</title><path d="M414.76,225.61c0,.26-.06.53-.08.79-1.22,12.92-2.92,26.92-12,36.21-10.64,10.89-27.63,11.6-42.86,11.6h-247c-27.15,0-58.14-1.74-75.2-22.85a51.37,51.37,0,0,1-10.17-22c-3.87-18.12,0-38.87,4.25-57.54,2.52-11,5.11-22.15,10.65-32C62.54,104,113,98.52,141.38,68.76c7.26-7.61,12.91-16.67,20.48-24,19.41-18.73,47-17.62,71.84-22.23,28.73-5.34,61.29-5.13,86.19,12.12,38.86,26.91,43.64,82.57,72.33,120.14,6.46,8.47,14.24,16.14,18.72,25.81C417.34,194.45,416.17,210.42,414.76,225.61Z" transform="translate(-25.82 -19.48)" fill="#245c93" opacity="0.18" style="isolation:isolate"/><path d="M260,42.59c-8.25,5-17.49,8.07-26.37,11.87-7.55,3.23-14.9,7-22.73,9.51-8.6,2.73-17.62,3.84-26.61,4.48a270.79,270.79,0,0,1-31.85.43c-3.19-.15-6.49-.34-9.49.74S137.38,73,135,75.28l-10.6,10.1q30.19.3,60.4.33c9.94,0,19.9,0,29.78-1.12a135.53,135.53,0,0,0,29.87-6.84c12.16-4.28,23.93-10.48,32.65-20a56.42,56.42,0,0,0,14.55-33.18c.13-1.62-9.84-4.36-11.18-4.08-3.43.72-3.16,3.4-4.85,6.53C272.11,33.62,266.26,38.77,260,42.59Z" transform="translate(-25.82 -19.48)" fill="#245c93" opacity="0.18" style="isolation:isolate"/><path d="M222.75,66.63c31.37,11.43,65.95,10,99,5.2,8.59-1.25,17.54-2.87,24.43-8.16a19,19,0,0,1-5.11-6.39c-2.85,3.14-7.39,4-11.6,4.49a223,223,0,0,1-52-.24c-29.6-3.35-59.72-11.79-82.29-31.22a4.39,4.39,0,0,0-1.71-1.06,4.27,4.27,0,0,0-2.35.33c-3.44,1.2-15.83,4.15-17.07,7.82-1.41,4.18,10.24,9.34,13,11.05C198.4,55.49,210.16,62.05,222.75,66.63Z" transform="translate(-25.82 -19.48)" fill="#fff"/><path d="M414.76,225.61c0,.26-.06.53-.08.79-1.22,12.92-2.92,26.92-12,36.21-10.64,10.89-27.63,11.6-42.86,11.6h-247c-27.15,0-58.14-1.74-75.2-22.85a51.37,51.37,0,0,1-10.17-22c42,0,85.63.72,127.39.49l115.75-.65a90.66,90.66,0,0,0,10.81-.49c34.91-4.36,68.62,4.63,103.23-1.68,8.15-1.48,16.4-3.4,24.64-2.53A31,31,0,0,1,414.76,225.61Z" transform="translate(-25.82 -19.48)" fill="#245c93" opacity="0.45" style="isolation:isolate"/><path d="M156.47,233a4.17,4.17,0,0,0,1.94,2.7,4.36,4.36,0,0,0,1.29.32c3.26.45,6.54.74,9.82.87a4.52,4.52,0,0,0,2.53-.41,2.87,2.87,0,0,0,.94-3.38,5.3,5.3,0,0,0-2.6-2.64c-1.12-.6-2.34-1-3.5-1.47-2-.85-3.77-2.14-5.88-2.48-1.37-.22-4.17-.33-5,1S156.07,231.67,156.47,233Z" transform="translate(-25.82 -19.48)" fill="#282b2d"/><path d="M191.45,224.65a25.18,25.18,0,0,1-11.32,1.27A94.25,94.25,0,0,0,166.76,193c-1.6,10.35,4.66,21.13,1.5,31.11a3.62,3.62,0,0,1-1,1.73,3.72,3.72,0,0,1-2.14.64,29.45,29.45,0,0,1-11.23-1.37,184.43,184.43,0,0,1-1.21-55.4c.35-2.69,19.66-1.74,21.84-1.41,7.21,1.1,6.17,7.88,7.88,14.18C186.17,196.31,191.45,210.09,191.45,224.65Z" transform="translate(-25.82 -19.48)" fill="#282b2d"/><path d="M192.51,112.31a16.84,16.84,0,0,0,2.39-2.46,16.48,16.48,0,0,0,2.58-5.27c.62-2.17.33-4.54,1.23-6.63a1.45,1.45,0,0,1,.59-.72.64.64,0,0,1,.84.17.83.83,0,0,1,.07.56c-.05.48-.18.93-.26,1.4a2.66,2.66,0,0,0,.09,1.4c.34.83,1-.69,1.19-1,.48-.74.91-1.5,1.43-2.22a6,6,0,0,1,3.09-2.45c.45.35.17,1.06-.13,1.54l-1.87,3,2.72-2.88a1.37,1.37,0,0,1,.64-.45.47.47,0,0,1,.59.36.67.67,0,0,1-.16.4l-2.09,3a8.32,8.32,0,0,1,3-2.6.43.43,0,0,1,.29-.06c.28.07.16.49,0,.72l-2.78,3.65,2.22-1.46a.59.59,0,0,1,.33-.13c.4,0,.32.66.06,1-.69.86-1.64,1.48-2.37,2.32-1.23,1.43-1.84,3.52-3.55,4.33a6.87,6.87,0,0,0-1.17.53c-.94.66-2.73,4.81-3.46,5.77q-2.61,3.47-5.53,6.69a29.92,29.92,0,0,1-5.86,5.27,12.6,12.6,0,0,1-7.47,2.2,1.36,1.36,0,0,1-1.58-1.36c-.49-4.17,2.66-4.94,5.57-7.06Q188,116.32,192.51,112.31Z" transform="translate(-25.82 -19.48)" fill="#f6a98e"/><path d="M153.6,114.47l.2,7.22a4.15,4.15,0,0,0,.2,1.36,4,4,0,0,0,2.23,1.84c.65.31,1.3.61,2,.87s1.13,2.21,1.89,2.24,1.85-1.84,2.46-2.29a1.56,1.56,0,0,0,.49-.59,1.88,1.88,0,0,0,.09-.78l0-3.56a6.71,6.71,0,0,0-.61-3.3,14.57,14.57,0,0,0-1.76-2c-.56-.66-.75-1.43-1.38-2.06-2.21-2.21-5.58-3.08-5.37,1a67.47,67.47,0,0,1-.35,11.1,1.38,1.38,0,0,0,0,.81,1.45,1.45,0,0,0,.94.62c.9.29,1.79.58,2.69.85.75.23,1.7.4,2.22-.2a2,2,0,0,0,.37-1.11,92.76,92.76,0,0,0,.68-9.85,5,5,0,0,0-.13-1.54,3,3,0,0,0-.24-.58" transform="translate(-25.82 -19.48)" fill="#f6a98e"/><path d="M158.43,123a1.17,1.17,0,0,0,.67.43c.53.05.85-.56.93-1.08a8.16,8.16,0,0,0-.24-2.9,3.59,3.59,0,0,0-.56-1.5,3.64,3.64,0,0,0-.95-.79,11.47,11.47,0,0,0-1.36-.79c-.36-.16-1.93-1-2.26-.57s.55,2.12.72,2.53A15,15,0,0,0,158.43,123Z" transform="translate(-25.82 -19.48)" fill="url(#linear-gradient)"/><path d="M167.72,119.72a4.39,4.39,0,0,1-5.05,2,12.88,12.88,0,0,1-7.43-4.63,11.7,11.7,0,0,1-2.36-8.38,14.79,14.79,0,0,1,4.44-8.8,5.45,5.45,0,0,1,4-1.33,14.81,14.81,0,0,1,4.22,1,9.51,9.51,0,0,1,3,1.53c2.2,1.85,2.37,5.15,2,8-.2,1.62.08,3.28-.24,4.82A14.19,14.19,0,0,1,167.72,119.72Z" transform="translate(-25.82 -19.48)" fill="#f6a98e"/><path d="M171.56,101.06a3.91,3.91,0,0,1-1.31,3.68,10.37,10.37,0,0,0-1.71-3.48,2.38,2.38,0,0,0-1.35-1,2.86,2.86,0,0,0-1.59.4,13.48,13.48,0,0,1-5.67,1.15,3.53,3.53,0,0,0-2.41.46,3,3,0,0,0-.72,1L154.44,108a7.78,7.78,0,0,0-.61,1.43c-.34,1.24-.12,2.74-1,3.65a7.85,7.85,0,0,0-2.41-3.33,12.39,12.39,0,0,1-1.8-1.49,6.45,6.45,0,0,1-1.17-3.85c-.15-2.06-.12-4.25,1-6s3.57-2.79,5.29-1.65c.89-1.93,2-4.06,4-4.68,2.9-.9,6.84,1.46,9.44,2.57A7.85,7.85,0,0,1,171.56,101.06Z" transform="translate(-25.82 -19.48)" fill="#551d11"/><path d="M150.3,109.6a1.71,1.71,0,0,0-1.47.46c-.5.61-.16,1.52.3,2.15a6.62,6.62,0,0,0,4.81,2.63.44.44,0,0,0,.38-.1.43.43,0,0,0,.05-.35C154,111.85,153.23,109.8,150.3,109.6Z" transform="translate(-25.82 -19.48)" fill="#f6a98e"/><path d="M181.24,130.9a1.8,1.8,0,0,1-.15.86,1.74,1.74,0,0,1-.82.66,16.06,16.06,0,0,1-2.7,1.05c-1.21.35-2.56.62-3.33,1.61-.91,1.18-.62,2.86-.26,4.31,2.24,8.89,5.61,17.75,5.1,26.92a4.61,4.61,0,0,1-1,3.08c-.89.91-2.26,1-3.57,1a4.22,4.22,0,0,1-1.39,2.39,6.27,6.27,0,0,1-3.57,1l-1.08.07a97.24,97.24,0,0,1-14.28-.1c-1.32-.1-2.78-.3-3.63-1.32a5.21,5.21,0,0,1-.89-2.26l-.57-2.61c-.36-1.67-.72-3.35-1-5a119.22,119.22,0,0,1-2.58-19.16c-.11-2.87-.2-4.47-2.73-6.21-1.19-.81-2.4-1.58-3.65-2.3a2.06,2.06,0,0,1-.77-.63,1.72,1.72,0,0,1-.22-.77c-.41-3.33.71-6.59,2-9.61s3.11-3.5,6-1.85a17.12,17.12,0,0,0,5.42,2.17,9.89,9.89,0,0,1,.81-.64,2.62,2.62,0,0,1,1.67-.67c1.22.08,1.58,2,3.2,3.13a3.6,3.6,0,0,0,4.19.16c.66-.53,1-1.35,1.74-1.81a4.44,4.44,0,0,1,1.42-.49h.06l12.31-2.71a1.63,1.63,0,0,1,1.07,0,1.51,1.51,0,0,1,.58.62A17.51,17.51,0,0,1,181.24,130.9Z" transform="translate(-25.82 -19.48)" fill="#245c93"/><path d="M158.9,136a2.35,2.35,0,0,0,1.19-.79,2.55,2.55,0,0,0,.21-1.4c0-2.88,1.28-5.59,2.57-8.17a3.06,3.06,0,0,1,1-1.34,3.12,3.12,0,0,1,1.32-.35l10.1-1.11c-.64,3.93-3.19,7.59-2.65,11.53.66,4.8,5.73,8.18,6.13,13l-20,.7c-2.47.09-5.18.1-7.1-1.46-1-.82-.2-6.2.59-7.32C153.57,137.41,156.91,136.77,158.9,136Z" transform="translate(-25.82 -19.48)" fill="url(#linear-gradient-2)"/><path d="M149.1,167.61a5.8,5.8,0,0,1-.45-1.29,23.69,23.69,0,0,1-.6-3.74C148.38,164.26,148.74,165.94,149.1,167.61Z" transform="translate(-25.82 -19.48)" fill="#245c93"/><path d="M144.73,131.74c0,.28-.06.52-.09.7a5.26,5.26,0,0,1-.88,2.33,2.48,2.48,0,0,1-2.15,1.07,3.28,3.28,0,0,1-2.34-2.18,9.54,9.54,0,0,1-.76-4.6.86.86,0,0,1,.5-.85,18.74,18.74,0,0,0,3.2-2.13C145,123.72,145,129.31,144.73,131.74Z" transform="translate(-25.82 -19.48)" fill="url(#linear-gradient-3)"/><path d="M128.73,112.89a17.73,17.73,0,0,1-2.49-2.56,17.28,17.28,0,0,1-2.69-5.5c-.64-2.25-.34-4.72-1.28-6.9a1.42,1.42,0,0,0-.61-.75.67.67,0,0,0-.87.18.85.85,0,0,0-.08.59c.05.49.19,1,.27,1.45a2.77,2.77,0,0,1-.09,1.46c-.35.86-1-.72-1.24-1-.5-.77-1-1.57-1.49-2.31A6.18,6.18,0,0,0,114.94,95c-.46.37-.18,1.1.13,1.61l2,3.11-2.83-3a1.37,1.37,0,0,0-.67-.48.49.49,0,0,0-.61.38.65.65,0,0,0,.17.41l2.18,3.16a8.65,8.65,0,0,0-3.12-2.7.43.43,0,0,0-.31-.07c-.29.07-.16.51,0,.75l2.89,3.8-2.31-1.52a.55.55,0,0,0-.34-.13c-.42,0-.33.68-.07,1,.73.9,1.72,1.54,2.47,2.41,1.28,1.49,1.92,3.67,3.7,4.51a8.4,8.4,0,0,1,1.22.55c1,.69,2.84,5,3.6,6q2.73,3.62,5.76,7a31.9,31.9,0,0,0,6.11,5.5,13.14,13.14,0,0,0,7.77,2.28,1.4,1.4,0,0,0,1.65-1.42c.51-4.34-2.77-5.13-5.8-7.34Q133.43,117.07,128.73,112.89Z" transform="translate(-25.82 -19.48)" fill="#f6a98e"/><path d="M164.44,114.68a.47.47,0,0,0-.27.06.41.41,0,0,0-.15.27,2.65,2.65,0,0,0,.42,1.94,1.89,1.89,0,0,0,.77.79,1.49,1.49,0,0,0,1.52-.25c.55-.43,1.63-2.09,1.05-2.75S165.15,114.63,164.44,114.68Z" transform="translate(-25.82 -19.48)" fill="#fff"/><path d="M168.47,173.9a97.24,97.24,0,0,1-14.28-.1c-1.32-.1-2.78-.3-3.63-1.32a5.21,5.21,0,0,1-.89-2.26l-.57-2.61c-.36-1.67-.72-3.35-1-5a119.22,119.22,0,0,1-2.58-19.16c0-1-.06-2,0-3a2.32,2.32,0,0,1,.3-.22c2.39-1.56,4.94-1.09,6.89-3.79a73.4,73.4,0,0,0,5.68,31.92,6.71,6.71,0,0,0,2.11,3.11,7.16,7.16,0,0,0,2.26.89Z" transform="translate(-25.82 -19.48)" fill="url(#linear-gradient-4)"/><path d="M286.79,223.88c-1,2.08-3.08,3.35-5.06,4.51a4,4,0,0,0-1.45,1.2,1.39,1.39,0,0,0,.1,1.74,2,2,0,0,0,1.36.34,36.87,36.87,0,0,0,10.64-1.6,1.12,1.12,0,0,0,1-1.15,44.21,44.21,0,0,0-1.08-17.4c-.72-2.68-4.81,1.48-5.16,3C286.46,217.64,288.22,220.79,286.79,223.88Z" transform="translate(-25.82 -19.48)" fill="#f3a886"/><path d="M304.45,223.88c-1,2.08-3.08,3.35-5.06,4.51a4,4,0,0,0-1.45,1.2,1.38,1.38,0,0,0,.11,1.74,2,2,0,0,0,1.35.34,36.94,36.94,0,0,0,10.65-1.6,1.1,1.1,0,0,0,1-1.15,44.21,44.21,0,0,0-1.08-17.4c-.71-2.68-4.8,1.48-5.15,3C304.12,217.64,305.89,220.79,304.45,223.88Z" transform="translate(-25.82 -19.48)" fill="#f3a886"/><path d="M285.67,154s-8.37,22-4.73,36.46a191.05,191.05,0,0,1,4.73,25.7l8.05-1.91s-.55-29.5,0-30.76,10.85-28.12,10.85-28.12Z" transform="translate(-25.82 -19.48)" fill="#282b2d"/><path d="M298,153s-2.51,33.44,0,42.32,5.83,22,5.83,22h8s-2.19-25.2,0-32.16,8-30.27,6.6-34.47S298,153,298,153Z" transform="translate(-25.82 -19.48)" fill="#282b2d"/><path d="M276.69,106.2a66.09,66.09,0,0,1-6.44,6.25,2.23,2.23,0,0,1-1.07.59,2.26,2.26,0,0,1-1.34-.42c-2.7-1.51-16.24-4.1-20-4.68a27.19,27.19,0,0,1-5.41-1.31c-1.4-.53-2.79-1.71-4.18-2a5.58,5.58,0,0,0,1.52,3.22,24.18,24.18,0,0,1-9.2.61c-.41.79.53,1.57,1.33,1.94a43.3,43.3,0,0,0,7.34,2.61,8,8,0,0,0,4.08.25,7.34,7.34,0,0,1,1.43-.37,4,4,0,0,1,2,.54,104.77,104.77,0,0,0,15.49,5.93c3,.88,6.26,1.59,9.28.69a18.3,18.3,0,0,0,4.2-2.09,40.54,40.54,0,0,0,7.33-5.24,20.46,20.46,0,0,0,4.82-7.21c.67-1.73,1.1-3.72.34-5.41-2-4.37-5.42-1.14-7.43,1.34C279.36,103.13,278.05,104.7,276.69,106.2Z" transform="translate(-25.82 -19.48)" fill="#f3a886"/><path d="M308.91,100c2,1.87,2.5,4.78,2.66,7.49.37,6.06-.6,12.21.47,18.18a46.6,46.6,0,0,0,2,7q2.72,7.84,6.17,15.42a4.63,4.63,0,0,1,.61,3,4,4,0,0,1-1.6,2,15.42,15.42,0,0,1-11.59,2.81c-1-.16-2-.43-3-.56a35.49,35.49,0,0,0-5.83.07A61.36,61.36,0,0,1,285.67,154c-.14-3.94,1.32-7.74,2.34-11.55s1.55-8.07-.3-11.56c-1.4-2.64-4-4.55-5-7.36-.95-2.63-.31-5.51-.22-8.3.15-4.93-1.46-9.94-.23-14.71a7.7,7.7,0,0,1,3-4.62c3.44-2.25,8.45-1.9,12.05-.38S306,97.26,308.91,100Z" transform="translate(-25.82 -19.48)" fill="#245c93"/><path d="M295.82,133.79c2.67-.41,5.57-.94,7.36-3l1.35,4.24a11.21,11.21,0,0,0,2.4,4.75c1.28,1.26,3.47,1.79,4.87.67A95.92,95.92,0,0,1,309.56,116c-4.48,4.28-9.2,8.71-15.14,10.45-2.95.86-6.29,1.13-8.45,3.31.48-.49,2.78,4.5,3,4.68C290.44,135.37,294.19,134,295.82,133.79Z" transform="translate(-25.82 -19.48)" fill="url(#linear-gradient-5)"/><path d="M289.51,98.75c-.08,1.12-.06,2.47.89,3.08a2.92,2.92,0,0,0,2.44,0,5.57,5.57,0,0,0,1.91-.89,6.08,6.08,0,0,0,1.44-1.82A12.59,12.59,0,0,0,298.11,94a5.79,5.79,0,0,0-1.86-5,2.72,2.72,0,0,0-2.42-.64,3.63,3.63,0,0,0-1.1.62c-1.39,1-3.39,1.88-3.43,3.8S289.51,96.77,289.51,98.75Z" transform="translate(-25.82 -19.48)" fill="#f3a886"/><path d="M293.9,98.35a3.57,3.57,0,0,1-1.57,1.53,1.74,1.74,0,0,1-2-.42,2.56,2.56,0,0,1-.4-1.24l-.66-4.33a1.24,1.24,0,0,1,0-.69,1.48,1.48,0,0,1,.29-.37,19.8,19.8,0,0,1,3.24-2.59,5.79,5.79,0,0,1,1.81-1c.75-.06.59.37.63,1.12C295.37,93,295.34,95.94,293.9,98.35Z" transform="translate(-25.82 -19.48)" fill="#db896a"/><path d="M275.26,85.09a4.73,4.73,0,0,0,.34,3.43c.54.8,1.56,1.24,1.94,2.12a5.85,5.85,0,0,1,.08,2.47,4.94,4.94,0,0,0,5.4,4.81c2.16-.3,3.81-2,5.2-3.7,1-1.28,2-2.59,3-3.94a3.23,3.23,0,0,0,.67-1.47,3.06,3.06,0,0,0-.35-1.44,26.59,26.59,0,0,0-10.15-11.85c-2.08-1.3-4-2.28-4.74.58A87.43,87.43,0,0,0,275.26,85.09Z" transform="translate(-25.82 -19.48)" fill="#551d11"/><path d="M278,86.35a12.65,12.65,0,0,0,2.42,4.48A11.15,11.15,0,0,0,284,93.17c3,1.34,6.74,2,9.25-.09a15.88,15.88,0,0,0,4.54-8.87c.18-3.35-1.89-5.49-4.11-8-2.49-2.81-6.7-3.24-10.45-3-3.19.19-6.32,1.24-7.16,4.71C275.46,80.5,277.16,84,278,86.35Z" transform="translate(-25.82 -19.48)" fill="#f3a886"/><path d="M275.75,71.4a1.49,1.49,0,0,1-.34.45c-.88,1-.27,2.66.84,3.34s2.59.57,3.93.67c.33,0,4.48-.21,4.32-.49a8.5,8.5,0,0,0,2,2.6,2.92,2.92,0,0,0,3.08.47c.21-.12.45-.28.68-.18a.66.66,0,0,1,.24.2,14.2,14.2,0,0,1,2.36,4,.65.65,0,0,0,.13.23c.28.23.61-.22.72-.57.3-.87,1.16-1.71,2-1.43a1.71,1.71,0,0,1,1,1.23,2.55,2.55,0,0,1-1.8,3.19,13,13,0,0,1,.53,5.67c-.11,1.06-.41,3.28.75,3.93a1.4,1.4,0,0,0,1.68-.29,1.52,1.52,0,0,0,2.87.72A4.15,4.15,0,0,0,307,95a1.46,1.46,0,0,0,1.85-1.75c-.22-.6-.81-1.37-.28-1.73.19-.12.45-.1.64-.22a.93.93,0,0,0,.36-.71,7.41,7.41,0,0,0-.8-4.69,2.39,2.39,0,0,1-.39-1,3.17,3.17,0,0,1,.45-1.37,3,3,0,0,0-.5-2.95c-.24-.28-.55-.55-.57-.91s.22-.63.31-.95a2,2,0,0,0-.69-1.8,5.29,5.29,0,0,1-1.29-1.55c-.38-.94.78-2.07.81-3.18a5.45,5.45,0,0,0-1.21-3.6c-1-1.15-2.58-1.61-4-2.32-2-1.06-3.63-2.72-5.65-3.73a20.58,20.58,0,0,0-4.49-1.42,14.76,14.76,0,0,0-5.23-.55A8.77,8.77,0,0,0,279.57,67a1.3,1.3,0,0,1-.38.71,1.18,1.18,0,0,1-.77.15,4.63,4.63,0,0,0-2.31.33,1.62,1.62,0,0,0-.88,2C275.43,70.55,275.92,71,275.75,71.4Z" transform="translate(-25.82 -19.48)" fill="#551d11"/><path d="M302.64,112.37a65.27,65.27,0,0,1-3.43,8.29,2.17,2.17,0,0,1-.75,1,2.29,2.29,0,0,1-1.4.14c-3.07-.32-16.53,2.68-20.23,3.65a26.18,26.18,0,0,1-5.48.93c-1.5.08-3.25-.45-4.63-.15a5.58,5.58,0,0,0,2.68,2.35,24.55,24.55,0,0,1-8.21,4.22c-.06.88,1.11,1.23,2,1.25a44.05,44.05,0,0,0,7.78-.52,8,8,0,0,0,3.84-1.39,7.22,7.22,0,0,1,1.17-.91,4.08,4.08,0,0,1,2-.27,106.66,106.66,0,0,0,16.57-.7c3.12-.4,6.38-1,8.79-3.05a18.36,18.36,0,0,0,3-3.59,40.59,40.59,0,0,0,4.64-7.71,20.47,20.47,0,0,0,1.56-8.54c-.06-1.85-.46-3.85-1.83-5.1-3.54-3.23-5.43,1.11-6.29,4.18C303.87,108.5,303.29,110.46,302.64,112.37Z" transform="translate(-25.82 -19.48)" fill="#f3a886"/><path d="M292.59,228.43a1.88,1.88,0,0,1-.59.33c-.6.22-1.15.53-1.76.71a13.69,13.69,0,0,1-2.38.45,14.21,14.21,0,0,1-4.82-.31,6.08,6.08,0,0,0-2.1-.31,5.17,5.17,0,0,0-2.27,1.07c-.5.35-1,.7-1.47,1.08a5.65,5.65,0,0,0-1.23,1.26.46.46,0,0,0-.1.35.4.4,0,0,0,.15.19,3.89,3.89,0,0,0,2.58.74,17.66,17.66,0,0,0,2.8-.32c4-.68,8-1.55,12-2.58a1.19,1.19,0,0,0,.72-.41,1.18,1.18,0,0,0,.09-.62l-.09-1.85c0-.3-.12-.68-.42-.67a.62.62,0,0,0-.35.21C293.05,228,292.84,228.23,292.59,228.43Z" transform="translate(-25.82 -19.48)" fill="#282b2d"/><path d="M310.52,227.79a2.08,2.08,0,0,1-.6.34c-.59.21-1.14.52-1.75.71a14.9,14.9,0,0,1-2.38.45A14.46,14.46,0,0,1,301,229a6.14,6.14,0,0,0-2.11-.31,5.13,5.13,0,0,0-2.26,1.07c-.5.35-1,.69-1.48,1.07a5.65,5.65,0,0,0-1.22,1.27.4.4,0,0,0-.1.34.37.37,0,0,0,.15.2,3.85,3.85,0,0,0,2.57.73,16.55,16.55,0,0,0,2.81-.31q6-1,11.95-2.59a1.08,1.08,0,0,0,.71-.4,1,1,0,0,0,.09-.62l-.08-1.86c0-.29-.13-.67-.42-.66a.57.57,0,0,0-.35.2A7.44,7.44,0,0,1,310.52,227.79Z" transform="translate(-25.82 -19.48)" fill="#282b2d"/><rect x="206.49" y="189.55" width="7.72" height="24.16" fill="#245c93"/><rect x="206.49" y="189.55" width="7.72" height="24.16" fill="url(#linear-gradient-6)"/><path d="M337.33,206l-1.91,13L331.61,245a20.38,20.38,0,0,0,5.17.41l3-24.87c.49-4.09.64-8.4,1.48-12.42.8-3.78,7.7-4.27,9.54-1.13a8.49,8.49,0,0,1,.92,3.33c1.47,12-.5,24.15-2.46,36.09a49,49,0,0,0,8.12-.41l-1-12.83c-.41-5.19-.82-10.39-.83-15.6,0-3.12.15-6.37,1.62-9.13,1.9-3.6,4.76-4.41,8.34-3.74,4.36.81,9.17.19,13.62.4,3.88.19,3.1,2.42,3.18,5.87q.15,6,.4,12t.58,12c.07,1.28-.13,11.09.73,11.48,1.5.68,3.74,1.11,4.41-.41a3,3,0,0,0,.17-1.3c-.12-13-1.45-25.77-2-38.68-.3-6.9,1.05-14.15,1.56-21.05.71-9.63,1.63-19.43,1.16-29.09-.63-13-9.56-10.32-9.56-10.32l-26.44,31-8.47,9.92c-1.79,2.09-4.87,4.65-5.75,7.26-1.12,3.32-1.14,7.65-1.57,11.28Zm25.59-11.07,7.19-12.26H384.8L384,196.05Z" transform="translate(-25.82 -19.48)" fill="#245c93"/><path d="M373,178.14a30.74,30.74,0,0,1,.37,9.32c-.51,3.08-2.13,6.14-4.88,7.61a15.4,15.4,0,0,1-6.6,1.32q-11.21.57-22.41,1.29c-5.79.36-9.92,5.26-15.52,6.79a242,242,0,0,0,4.32,35.89l-12.37.09c-4.54-9.65-5.91-20.45-7.22-31-.51-4.09-.95-8.52,1.12-12.08,1.34-2.3,3.57-3.92,5.73-5.48l20-14.35c2.29-1.65,4.68-3.35,7.45-3.9a20,20,0,0,1,7,.29C357.19,175.05,365.65,177,373,178.14Z" transform="translate(-25.82 -19.48)" fill="#282b2d"/><path d="M344.94,184.78c-1.53,2.47-4,4.22-6.34,5.91l-13.71,9.76c-1.95,1.39-4,2.88-5,5.07a8.32,8.32,0,0,0-.65,3.52c.11,5.58,4.34,9.48,6.36,14.3q3.48,8.31,7.67,16.3a1.58,1.58,0,0,0,1.61,1.09c4.29.36,9-.49,12-3.52a5.31,5.31,0,0,1-1.05-1.51c-1.59-3-3.79-5.89-4.83-9.08a37.29,37.29,0,0,1-1.79-11,10.28,10.28,0,0,1,.37-3.32c1.24-4,5.82-5.59,9.7-7a69.23,69.23,0,0,0,17.79-9.84c2.44-1.87,4.83-4,6.13-6.79a20.29,20.29,0,0,0,1.47-6.91,3.64,3.64,0,0,0-.16-1.8c-.47-1.06-1.75-1.44-2.88-1.69q-6.63-1.49-13.31-2.79a17,17,0,0,0-5.62-.44C347.71,175.7,347.2,181.15,344.94,184.78Z" transform="translate(-25.82 -19.48)" fill="#282b2d"/><path d="M378.35,147.73s6.88-2.63,8.14,4.55-.52,28.65-.52,28.65H367.46L378,148.68" transform="translate(-25.82 -19.48)" fill="url(#linear-gradient-7)"/><path d="M292.69,139.13a4.18,4.18,0,0,0,3.22,3.19,8.55,8.55,0,0,0-3.71,1.27,2.94,2.94,0,0,0-1.13,3.47c.62,1.25,2.22,1.58,3.61,1.71,13.93,1.34,27.85-2,41.32-5.81,2.59-.72,6.47-2.75,4.22-6-1.74-2.51-5.06-.87-7.41-.24a101.54,101.54,0,0,1-25.43,3.4A100.35,100.35,0,0,1,292.69,139.13Z" transform="translate(-25.82 -19.48)" fill="#f3a886"/><path d="M338.16,172.76a5.45,5.45,0,0,0,1.3,3.48,6.24,6.24,0,0,0,3.21,1.37,110,110,0,0,0,30.17,2.19c-.11-4.77,3.3-8.85,4.5-13.46a38.47,38.47,0,0,0,.72-8.31,66,66,0,0,1,1.62-12.36c.8-3.51,1.89-7.15,1-10.64a12.86,12.86,0,0,0-5.14-7c-8.88-6.46-20-3.23-27,4.38-5.54,6-3.43,15.29-5.92,22.65C340.68,160.78,337.63,166.5,338.16,172.76Z" transform="translate(-25.82 -19.48)" fill="#245c93"/><path d="M373.7,141c-3.93,2.25-7,5.86-9.65,9.44-2.43,3.23-4.13,5.89-8.45,6.7-3.23.6-6.54.17-9.83.18a7.66,7.66,0,0,0-3.82.76,5.07,5.07,0,0,0-2,5.77,7.27,7.27,0,0,0,4.54,4.48,13.37,13.37,0,0,0,6.53.47,23.35,23.35,0,0,0,10.51-4.31c.53,3.75-.85,7.45-.52,11.19.17,2,.28,3.19,2.47,3a5.64,5.64,0,0,0,3.63-2.3,14.77,14.77,0,0,0,2.26-5.63,36.38,36.38,0,0,0,1.16-7,35.8,35.8,0,0,1,.24-4.86,26.12,26.12,0,0,1,2.33-6A34.48,34.48,0,0,0,375.94,142a1.59,1.59,0,0,0-.13-1C375.4,140.33,374.38,140.6,373.7,141Z" transform="translate(-25.82 -19.48)" fill="url(#linear-gradient-8)"/><path d="M337,132.79a1.89,1.89,0,0,0-1,.53,1.77,1.77,0,0,0-.3.85,28.23,28.23,0,0,0-.27,6.09,3.28,3.28,0,0,0,1.1,2.66,3.37,3.37,0,0,0,2.41.21,84.14,84.14,0,0,0,9.29-2.06,23.9,23.9,0,0,0,6-2.36,5.57,5.57,0,0,0,1.79-1.55,6.85,6.85,0,0,0,.75-1.68,12.54,12.54,0,0,0,.94-4.36c0-1.4-.8-3.74-2.44-4s-4.07,1.29-5.57,1.82C345.46,130.42,341.24,131.7,337,132.79Z" transform="translate(-25.82 -19.48)" fill="#245c93"/><path d="M369.23,125.53c-1.05,3.55-6.94,5.94-10.1,5.86a1.15,1.15,0,0,1-.75-.2c-.31-.28-.25-.76-.18-1.17a22.18,22.18,0,0,0,.22-5.87,1.11,1.11,0,0,0-.4-.88,1.05,1.05,0,0,0-.66-.08c-2.18.23-4.45.84-6.52.11a5.37,5.37,0,0,1-3.23-3.27,10,10,0,0,1-.29-3.93,86.32,86.32,0,0,1,1.3-10.38,19.78,19.78,0,0,1,1.68-5.46,7.93,7.93,0,0,1,4.05-3.88,12.24,12.24,0,0,1,4.18-.55c3.25,0,6.63,0,9.58,1.3a7.52,7.52,0,0,1,4.37,4.76,10.18,10.18,0,0,1-.34,4.92c-1.51,5.85-3.84,10.83-2.81,17A3.9,3.9,0,0,1,369.23,125.53Z" transform="translate(-25.82 -19.48)" fill="#f3a886"/><path d="M348.13,97.28a4.15,4.15,0,0,0,.65,3c1,1.29,2.92,1.33,4.57,1.4a27.27,27.27,0,0,1,4.12.5,1.25,1.25,0,0,1,.81.39c.16.22.17.52.35.72a1.12,1.12,0,0,0,.75.3l4.76.67a17.08,17.08,0,0,1-1.39,7.57,2.14,2.14,0,0,1,2.87-.85,2.54,2.54,0,0,1,1.07,2.91,3.09,3.09,0,0,1-2.46,2c.73,0,1.22.74,1.67,1.33s1.18,1.18,1.85.85a1.74,1.74,0,0,0,.66-.73c1.26-2.11,2.44-4.27,3.52-6.48,1.54-3.14,2.93-6.57,2.53-10a4,4,0,0,0-.81-2.21A1.88,1.88,0,0,0,371.5,98a5.08,5.08,0,0,0-3-4.52,12.06,12.06,0,0,0-5.62-.95,27.49,27.49,0,0,1-5.74-.21,35.7,35.7,0,0,0-4-.92C349.61,91.15,348.39,94.36,348.13,97.28Z" transform="translate(-25.82 -19.48)" fill="#551d11"/><ellipse cx="182.75" cy="128.2" rx="0.65" ry="6.11" transform="translate(-3.96 263.45) rotate(-78.93)" fill="url(#linear-gradient-9)"/><path d="M187.89,124v0a8.38,8.38,0,0,1-.3,1.1,5.46,5.46,0,0,1-1,1.7l-.06.07a4.17,4.17,0,0,1-.82.7,5.75,5.75,0,0,1-4.37.73,5.3,5.3,0,0,1-3.36-2,3.87,3.87,0,0,1-.5-.86,5,5,0,0,1-.39-1.78,7.17,7.17,0,0,1,.14-1.8c0-.08,0-.15.05-.23s.1-.43.17-.65a13,13,0,0,1,.49-1.35,10.78,10.78,0,0,1,4.2-5.12,3.19,3.19,0,0,1,2.14-.4C187.22,114.77,188.6,120.34,187.89,124Z" transform="translate(-25.82 -19.48)" fill="#245c93"/><path d="M187.89,124v0a8.38,8.38,0,0,1-.3,1.1,5.46,5.46,0,0,1-1,1.7l-.06.07a4.17,4.17,0,0,1-.82.7,5.75,5.75,0,0,1-4.37.73,5.3,5.3,0,0,1-3.36-2,3.87,3.87,0,0,1-.5-.86,5,5,0,0,1-.39-1.78,7.17,7.17,0,0,1,.14-1.8c0-.08,0-.15.05-.23s.1-.43.17-.65a13,13,0,0,1,.49-1.35,10.78,10.78,0,0,1,4.2-5.12,3.19,3.19,0,0,1,2.14-.4C187.22,114.77,188.6,120.34,187.89,124Z" transform="translate(-25.82 -19.48)" fill="url(#linear-gradient-10)"/><path d="M187.89,124a5.84,5.84,0,0,1-1.36,2.87,6.13,6.13,0,0,1-3.74.37c-2.95-.58-4.83-2.72-4.11-6.39a12.7,12.7,0,0,1,3.46-6.29,3.19,3.19,0,0,1,2.14-.4C187.22,114.77,188.61,120.37,187.89,124Z" transform="translate(-25.82 -19.48)" fill="#245c93"/><path d="M187.89,124a5.84,5.84,0,0,1-1.36,2.87,6.13,6.13,0,0,1-3.74.37c-2.95-.58-4.83-2.72-4.11-6.39a12.7,12.7,0,0,1,3.46-6.29,3.19,3.19,0,0,1,2.14-.4C187.22,114.77,188.61,120.37,187.89,124Z" transform="translate(-25.82 -19.48)" fill="url(#linear-gradient-11)"/><polygon points="153.05 98.47 154.1 99.08 155.79 98.71 156.97 99.64 158.44 99.23 159.52 100.28 160.95 99.72 162.09 100.36 162.21 101.36 160.97 100.55 159.05 101 158.09 99.98 156.65 100.6 155.46 99.34 153.58 100.22 152.56 99.33 153.05 98.47" fill="#245c93"/><polygon points="153.05 98.47 154.1 99.08 155.79 98.71 156.97 99.64 158.44 99.23 159.52 100.28 160.95 99.72 162.09 100.36 162.21 101.36 160.97 100.55 159.05 101 158.09 99.98 156.65 100.6 155.46 99.34 153.58 100.22 152.56 99.33 153.05 98.47" fill="#fff"/><path d="M187.89,124v0a8.38,8.38,0,0,1-.3,1.1,4.18,4.18,0,0,1-.58-.75,1.18,1.18,0,0,0-.44-.52.79.79,0,0,0-.74.11c-.22.13-.42.31-.65.42a1.28,1.28,0,0,1-1.05,0,3.67,3.67,0,0,1-.82-.65,1.37,1.37,0,0,0-.92-.43c-.5,0-.87.48-1.33.7a1.45,1.45,0,0,1-1.68-.39c-.23-.28-.39-.68-.74-.77a1,1,0,0,0-.89.38,1.81,1.81,0,0,1-.66.49,7.17,7.17,0,0,1,.14-1.8c0-.08,0-.15.05-.23h0a1.2,1.2,0,0,1,1.45,0c.22.2.37.47.57.68a1.49,1.49,0,0,0,1.24.41,2.57,2.57,0,0,0,1.32-.76c.27-.24.72-.09,1,.07a2.37,2.37,0,0,1,.78.73c.26.34.51.75.93.83a1.25,1.25,0,0,0,1.16-.63.82.82,0,0,1,.39-.39.73.73,0,0,1,.36,0,1.27,1.27,0,0,1,.95.36c.23.28.19.71.41,1Z" transform="translate(-25.82 -19.48)" fill="#fff" opacity="0.74"/><path d="M186.59,126.84l-.06.07a4.17,4.17,0,0,1-.82.7,2.72,2.72,0,0,1-.83-.24c-.42-.2-.77-.53-1.2-.7-.94-.36-2,.11-3-.12a9,9,0,0,1-1-.37,1.61,1.61,0,0,0-1.08-.08c-.21.08-.39.22-.59.29a3.87,3.87,0,0,1-.5-.86,2.85,2.85,0,0,0,1.18-.15,2,2,0,0,1,1.31-.25,2.52,2.52,0,0,1,.59.39,2.26,2.26,0,0,0,1.05.46,1.47,1.47,0,0,0,.66,0c.16,0,.3-.13.45-.18a2.29,2.29,0,0,1,1-.06,1.28,1.28,0,0,1,.48.09,2.65,2.65,0,0,1,.63.53A2.48,2.48,0,0,0,186.59,126.84Z" transform="translate(-25.82 -19.48)" fill="#fff"/><circle cx="154.74" cy="101.49" r="0.72" fill="#fff"/><circle cx="157.9" cy="101.87" r="0.72" fill="#fff"/><circle cx="160.56" cy="102.06" r="0.72" fill="#fff"/><path d="M178.45,120.55a.72.72,0,0,1-.85.57l-.15-.05a13,13,0,0,1,.49-1.35A.72.72,0,0,1,178.45,120.55Z" transform="translate(-25.82 -19.48)" fill="#fff"/><path d="M177.77,124l-.08,0a.16.16,0,0,0,0,.07l0,.12a.22.22,0,0,0,0,.08c0,.07.09.11.16.12a1.06,1.06,0,0,0,.35,0,3.39,3.39,0,0,1,1,.09.2.2,0,0,0,.2,0c.15-.18-.39-.4-.52-.44A2.39,2.39,0,0,0,177.77,124Z" transform="translate(-25.82 -19.48)" fill="#fff"/><path d="M181.53,124.47a.62.62,0,0,0-.39.16.21.21,0,0,0,0,.07c0,.06.07.08.13.08l1.5.25c.15,0,.31-.06.3-.23s-.14-.2-.27-.24A3,3,0,0,0,181.53,124.47Z" transform="translate(-25.82 -19.48)" fill="#fff"/><path d="M185.24,124.88a2.46,2.46,0,0,0-.71-.08c-.06,0-.14,0-.16.08a.14.14,0,0,0,0,.16.63.63,0,0,0,.36.23l.43.1c.31.08.62.28.93.21,0,0,0,0,.05,0s-.09-.44-.22-.51A2.52,2.52,0,0,0,185.24,124.88Z" transform="translate(-25.82 -19.48)" fill="#fff"/><ellipse cx="199.38" cy="127.61" rx="5.11" ry="0.54" transform="translate(-61.97 84.48) rotate(-26.89)" fill="url(#linear-gradient-12)"/><path d="M200.62,122.19v0a6.39,6.39,0,0,1,.37.88,4.59,4.59,0,0,1,.22,1.64s0,0,0,.08a3.61,3.61,0,0,1-.17.88,4.82,4.82,0,0,1-2.52,2.74,4.48,4.48,0,0,1-3.22.45,4,4,0,0,1-.78-.32,4.35,4.35,0,0,1-1.17-1,6.4,6.4,0,0,1-.83-1.26l-.09-.19c-.08-.16-.15-.33-.22-.51a9.51,9.51,0,0,1-.37-1.14,9,9,0,0,1,.13-5.55,2.82,2.82,0,0,1,1.21-1.37C195.42,116.44,199.2,119.41,200.62,122.19Z" transform="translate(-25.82 -19.48)" fill="#245c93"/><path d="M200.62,122.19v0a6.39,6.39,0,0,1,.37.88,4.59,4.59,0,0,1,.22,1.64s0,0,0,.08a3.61,3.61,0,0,1-.17.88,4.82,4.82,0,0,1-2.52,2.74,4.48,4.48,0,0,1-3.22.45,4,4,0,0,1-.78-.32,4.35,4.35,0,0,1-1.17-1,6.4,6.4,0,0,1-.83-1.26l-.09-.19c-.08-.16-.15-.33-.22-.51a9.51,9.51,0,0,1-.37-1.14,9,9,0,0,1,.13-5.55,2.82,2.82,0,0,1,1.21-1.37C195.42,116.44,199.2,119.41,200.62,122.19Z" transform="translate(-25.82 -19.48)" fill="url(#linear-gradient-13)"/><path d="M200.63,122.21a4.83,4.83,0,0,1,.58,2.6,5,5,0,0,1-2.28,2.17c-2.24,1.14-4.59.69-6-2.1a10.68,10.68,0,0,1-1-5.94,2.82,2.82,0,0,1,1.21-1.37C195.42,116.44,199.22,119.42,200.63,122.21Z" transform="translate(-25.82 -19.48)" fill="#245c93"/><path d="M200.63,122.21a4.83,4.83,0,0,1,.58,2.6,5,5,0,0,1-2.28,2.17c-2.24,1.14-4.59.69-6-2.1a10.68,10.68,0,0,1-1-5.94,2.82,2.82,0,0,1,1.21-1.37C195.42,116.44,199.22,119.42,200.63,122.21Z" transform="translate(-25.82 -19.48)" fill="url(#linear-gradient-14)"/><polygon points="165.72 103.36 166.73 103.22 167.65 102.11 168.91 102.11 169.67 101.08 170.93 101.22 171.58 100.11 172.66 99.96 173.26 100.55 172.02 100.65 170.99 101.94 169.83 101.77 169.2 102.92 167.76 102.69 166.98 104.24 165.84 104.18 165.72 103.36" fill="#245c93"/><polygon points="165.72 103.36 166.73 103.22 167.65 102.11 168.91 102.11 169.67 101.08 170.93 101.22 171.58 100.11 172.66 99.96 173.26 100.55 172.02 100.65 170.99 101.94 169.83 101.77 169.2 102.92 167.76 102.69 166.98 104.24 165.84 104.18 165.72 103.36" fill="#fff"/><path d="M200.62,122.19v0a6.39,6.39,0,0,1,.37.88,3.47,3.47,0,0,1-.77-.19,1,1,0,0,0-.55-.12.68.68,0,0,0-.44.45,5.64,5.64,0,0,1-.21.62,1,1,0,0,1-.69.55,2.82,2.82,0,0,1-.87,0,1.2,1.2,0,0,0-.83.19c-.32.27-.32.77-.52,1.15a1.2,1.2,0,0,1-1.31.61c-.3-.07-.61-.25-.89-.13s-.34.43-.38.71a1.49,1.49,0,0,1-.19.67,6.4,6.4,0,0,1-.83-1.26l-.09-.19h0a1,1,0,0,1,1-.73c.25,0,.48.12.73.15a1.22,1.22,0,0,0,1-.36,2.26,2.26,0,0,0,.49-1.19c.05-.29.42-.42.72-.48a2,2,0,0,1,.88.08,1.48,1.48,0,0,0,1.05.07,1,1,0,0,0,.43-1,.79.79,0,0,1,.06-.46A.67.67,0,0,1,199,122a1.11,1.11,0,0,1,.81-.25c.29.07.49.37.78.44Z" transform="translate(-25.82 -19.48)" fill="#fff" opacity="0.74"/><path d="M201.22,124.73s0,0,0,.08a3.61,3.61,0,0,1-.17.88,2.13,2.13,0,0,1-.68.28c-.38.08-.78,0-1.15.15-.81.24-1.28,1.11-2,1.47a9,9,0,0,1-.88.28,1.41,1.41,0,0,0-.75.51c-.1.15-.14.34-.24.5a4,4,0,0,1-.78-.32,2.37,2.37,0,0,0,.71-.7c.2-.33.37-.72.73-.84a2,2,0,0,1,.6,0,2,2,0,0,0,.93-.24,1.21,1.21,0,0,0,.43-.35c.08-.11.13-.24.2-.35a2.16,2.16,0,0,1,.64-.56,1.24,1.24,0,0,1,.36-.19,2.66,2.66,0,0,1,.69,0A2.11,2.11,0,0,0,201.22,124.73Z" transform="translate(-25.82 -19.48)" fill="#fff"/><circle cx="168.39" cy="104.48" r="0.6" fill="#fff"/><circle cx="170.68" cy="103.11" r="0.6" fill="#fff"/><circle cx="172.53" cy="101.86" r="0.6" fill="#fff"/><path d="M192.61,124.77a.61.61,0,0,1-.27.82l-.13,0a9.51,9.51,0,0,1-.37-1.14A.61.61,0,0,1,192.61,124.77Z" transform="translate(-25.82 -19.48)" fill="#fff"/><path d="M194,127.43s0,0,0,.06a.08.08,0,0,0,0,.07l0,.1,0,.06a.15.15,0,0,0,.17,0,.79.79,0,0,0,.22-.19,2.53,2.53,0,0,1,.7-.47.16.16,0,0,0,.12-.12c0-.21-.47-.07-.57,0A2.06,2.06,0,0,0,194,127.43Z" transform="translate(-25.82 -19.48)" fill="#fff"/><path d="M196.66,125.77a.52.52,0,0,0-.18.31s0,0,0,.06a.09.09,0,0,0,.12,0l1.12-.61a.2.2,0,0,0,.08-.31c-.08-.09-.19,0-.29,0A2.31,2.31,0,0,0,196.66,125.77Z" transform="translate(-25.82 -19.48)" fill="#fff"/><path d="M199.31,124.13a2,2,0,0,0-.5.32.15.15,0,0,0-.07.13.13.13,0,0,0,.11.09.56.56,0,0,0,.36,0c.11,0,.22-.11.33-.15s.56-.13.73-.34a.05.05,0,0,0,0,0c0-.17-.29-.25-.41-.23A3.23,3.23,0,0,0,199.31,124.13Z" transform="translate(-25.82 -19.48)" fill="#fff"/><ellipse cx="155.36" cy="114.26" rx="4.98" ry="0.53" fill="url(#linear-gradient-15)"/><path d="M184.64,129.59v0a5.37,5.37,0,0,1-.07.92,4.34,4.34,0,0,1-.53,1.52l0,.07a4.57,4.57,0,0,1-.54.69,4.72,4.72,0,0,1-3.39,1.27,4.31,4.31,0,0,1-3-1,3.52,3.52,0,0,1-.54-.61,4.21,4.21,0,0,1-.59-1.36,6,6,0,0,1-.17-1.46c0-.07,0-.13,0-.2a4.89,4.89,0,0,1,0-.54c0-.38.1-.77.18-1.16a8.83,8.83,0,0,1,2.56-4.76,2.65,2.65,0,0,1,1.65-.65C182.65,122.3,184.63,126.54,184.64,129.59Z" transform="translate(-25.82 -19.48)" fill="#245c93"/><path d="M184.64,129.59v0a5.37,5.37,0,0,1-.07.92c0,.09,0,.18,0,.27a4.74,4.74,0,0,1-.17.57,3.52,3.52,0,0,1-.31.68l0,.07-.06.09a3.91,3.91,0,0,1-.3.41l-.18.19a3.89,3.89,0,0,1-.86.65,4.54,4.54,0,0,1-1.21.47,5.68,5.68,0,0,1-1.32.15h-.25q-.33,0-.66-.06a4,4,0,0,1-2.08-1,3.52,3.52,0,0,1-.54-.61,4.21,4.21,0,0,1-.59-1.36,6,6,0,0,1-.17-1.46c0-.07,0-.13,0-.2a4.89,4.89,0,0,1,0-.54c0-.38.1-.77.18-1.16a11.34,11.34,0,0,1,.8-2.34,6.86,6.86,0,0,1,1.76-2.42l.07,0a2.81,2.81,0,0,1,1.34-.59h.24a2.13,2.13,0,0,1,.79.15,2.47,2.47,0,0,1,.49.24,3.43,3.43,0,0,1,.54.4c.16.15.31.3.46.47a6.5,6.5,0,0,1,.52.71,4.92,4.92,0,0,1,.28.45c.14.24.26.48.38.74a10.72,10.72,0,0,1,.91,3.22h0l0,.26C184.63,129.16,184.64,129.38,184.64,129.59Z" transform="translate(-25.82 -19.48)" fill="url(#linear-gradient-16)"/><path d="M184.64,129.61a4.78,4.78,0,0,1-.64,2.51,5,5,0,0,1-2.94.88c-2.44,0-4.28-1.42-4.28-4.47a10.45,10.45,0,0,1,1.78-5.58,2.65,2.65,0,0,1,1.65-.65C182.66,122.3,184.64,126.56,184.64,129.61Z" transform="translate(-25.82 -19.48)" fill="#245c93"/><path d="M184.64,129.61a4.78,4.78,0,0,1-.64,2.51,5,5,0,0,1-2.94.88c-2.44,0-4.28-1.42-4.28-4.47a10.45,10.45,0,0,1,1.78-5.58,2.65,2.65,0,0,1,1.65-.65C182.66,122.3,184.64,126.56,184.64,129.61Z" transform="translate(-25.82 -19.48)" fill="url(#linear-gradient-17)"/><circle cx="152.47" cy="108.82" r="0.59" fill="#fff"/><path d="M176.54,128.3a.58.58,0,0,1-.59.58h-.13c0-.38.1-.77.18-1.16A.59.59,0,0,1,176.54,128.3Z" transform="translate(-25.82 -19.48)" fill="#fff"/><path d="M176.54,131.2l-.06,0s0,0,0,.06v.17c0,.05.09.07.15.07a1.38,1.38,0,0,0,.27-.08,2.83,2.83,0,0,1,.82-.09.16.16,0,0,0,.15-.06c.1-.17-.37-.26-.48-.27A1.84,1.84,0,0,0,176.54,131.2Z" transform="translate(-25.82 -19.48)" fill="#fff"/><g opacity="0.52"><path d="M183.94,132.21a3.91,3.91,0,0,1-.3.41,9.48,9.48,0,0,0-.76-2.19,26.78,26.78,0,0,0-1.77-3,4.79,4.79,0,0,1-.83-1.79,3,3,0,0,1,.31-1.75,4.34,4.34,0,0,1,.8-1.14l.1-.11a3.43,3.43,0,0,1,.54.4,4.37,4.37,0,0,0-.94,1.81,3.69,3.69,0,0,0,.31,2.14,21.07,21.07,0,0,0,1,1.92,25.68,25.68,0,0,1,1.4,3Z" transform="translate(-25.82 -19.48)" fill="#fff"/><path d="M184.52,130.8a4.74,4.74,0,0,1-.17.57l-2.09-3.7a3.25,3.25,0,0,1-.59-1.68,3.3,3.3,0,0,1,.32-1.17,6.11,6.11,0,0,1,.5-1.26,6.5,6.5,0,0,1,.52.71c-.07.16-.17.32-.25.48a2.85,2.85,0,0,0-.29,1.55,6.88,6.88,0,0,0,1.06,2.48,18.33,18.33,0,0,1,.91,1.83C184.47,130.67,184.49,130.74,184.52,130.8Z" transform="translate(-25.82 -19.48)" fill="#fff"/><path d="M184.61,128.94a16.49,16.49,0,0,1-1.29-1.81,1.81,1.81,0,0,1-.24-.53,1.46,1.46,0,0,1,0-.51,7.94,7.94,0,0,1,.22-1.37c.14.24.26.48.38.74a.67.67,0,0,0-.09.21,1.23,1.23,0,0,0,0,.54,4.41,4.41,0,0,0,.38,1.33,8.74,8.74,0,0,0,.5.89l.15.25h0Z" transform="translate(-25.82 -19.48)" fill="#fff"/><path d="M182.6,133.46a4.54,4.54,0,0,1-1.21.47,10.49,10.49,0,0,0-1.1-3.41c-.42-.83-.95-1.59-1.37-2.42a5.2,5.2,0,0,1-.68-2.66,4.46,4.46,0,0,1,1-2.4,5,5,0,0,1,.73-.73h.24a2.13,2.13,0,0,1,.79.15c-.13.36-.71.82-.85,1a3.22,3.22,0,0,0-.73,1.7,4.74,4.74,0,0,0,.69,2.8c.47.86,1.07,1.65,1.53,2.51a9.09,9.09,0,0,1,.89,2.43A2.88,2.88,0,0,1,182.6,133.46Z" transform="translate(-25.82 -19.48)" fill="#fff"/><path d="M179.82,134.07q-.33,0-.66-.06c-.09-1.44-1-2.67-1.61-4a8.94,8.94,0,0,1-.75-4.65,6.86,6.86,0,0,1,1.76-2.42l.07,0a14.57,14.57,0,0,1-.41,1.41,9.52,9.52,0,0,0-.45,3.07c.13,1.58,1,3,1.73,4.39a4.44,4.44,0,0,1,.44,1.3A1.89,1.89,0,0,1,179.82,134.07Z" transform="translate(-25.82 -19.48)" fill="#fff"/></g><path d="M178.2,120l1,2.3a1.52,1.52,0,0,1,1,.09,1,1,0,0,0-.91,1,2.63,2.63,0,0,0,.29,1.39,15.29,15.29,0,0,0,1.8,3.14,8.4,8.4,0,0,0,1.28-3.16,1,1,0,0,0,0-.49.89.89,0,0,0-.18-.33,9.63,9.63,0,0,0-1.09-1.3,2.08,2.08,0,0,0,.63-.51l1.72.86a8,8,0,0,1-.65,2.17,10.78,10.78,0,0,0-.54,5.25l-3.37-.39a11.57,11.57,0,0,0-1-3.51,21.77,21.77,0,0,1-1-2.15,10.62,10.62,0,0,1-.38-1.76c-.09-.54.17-.76.44-1.17C177.43,121.26,178.27,120.19,178.2,120Z" transform="translate(-25.82 -19.48)" fill="url(#linear-gradient-18)"/><ellipse cx="149.62" cy="114.76" rx="6.11" ry="0.65" fill="url(#linear-gradient-19)"/><path d="M179.68,129.14v0a6.72,6.72,0,0,1-.09,1.13,5.25,5.25,0,0,1-.65,1.86.41.41,0,0,1-.05.09,4.6,4.6,0,0,1-.66.85,5.75,5.75,0,0,1-4.15,1.55,5.34,5.34,0,0,1-3.68-1.26,4.74,4.74,0,0,1-.65-.76A4.89,4.89,0,0,1,169,131a7.54,7.54,0,0,1-.2-1.79v-.24c0-.22,0-.44,0-.67a12.25,12.25,0,0,1,.22-1.42,10.78,10.78,0,0,1,3.14-5.83,3.23,3.23,0,0,1,2-.81C177.24,120.2,179.67,125.41,179.68,129.14Z" transform="translate(-25.82 -19.48)" fill="#245c93"/><path d="M179.68,129.14v0a6.72,6.72,0,0,1-.09,1.13,5.25,5.25,0,0,1-.65,1.86.41.41,0,0,1-.05.09,4.6,4.6,0,0,1-.66.85,5.75,5.75,0,0,1-4.15,1.55,5.34,5.34,0,0,1-3.68-1.26,4.74,4.74,0,0,1-.65-.76A4.89,4.89,0,0,1,169,131a7.54,7.54,0,0,1-.2-1.79v-.24c0-.22,0-.44,0-.67a12.25,12.25,0,0,1,.22-1.42,10.78,10.78,0,0,1,3.14-5.83,3.23,3.23,0,0,1,2-.81C177.24,120.2,179.67,125.41,179.68,129.14Z" transform="translate(-25.82 -19.48)" fill="url(#linear-gradient-20)"/><path d="M179.68,129.17a5.79,5.79,0,0,1-.79,3.08,6,6,0,0,1-3.6,1.08c-3,0-5.26-1.75-5.26-5.48a12.72,12.72,0,0,1,2.19-6.84,3.23,3.23,0,0,1,2-.81C177.25,120.2,179.68,125.43,179.68,129.17Z" transform="translate(-25.82 -19.48)" fill="#245c93"/><path d="M179.68,129.17a5.79,5.79,0,0,1-.79,3.08,6,6,0,0,1-3.6,1.08c-3,0-5.26-1.75-5.26-5.48a12.72,12.72,0,0,1,2.19-6.84,3.23,3.23,0,0,1,2-.81C177.25,120.2,179.68,125.43,179.68,129.17Z" transform="translate(-25.82 -19.48)" fill="url(#linear-gradient-21)"/><polygon points="143.84 105.44 144.99 105.84 146.57 105.16 147.9 105.84 149.27 105.16 150.53 105.98 151.83 105.16 153.07 105.57 153.38 106.52 152.01 105.97 150.21 106.78 149.07 105.97 147.78 106.85 146.37 105.84 144.7 107.06 143.52 106.38 143.84 105.44" fill="#245c93"/><polygon points="143.84 105.44 144.99 105.84 146.57 105.16 147.9 105.84 149.27 105.16 150.53 105.98 151.83 105.16 153.07 105.57 153.38 106.52 152.01 105.97 150.21 106.78 149.07 105.97 147.78 106.85 146.37 105.84 144.7 107.06 143.52 106.38 143.84 105.44" fill="#fff"/><path d="M179.68,129.14v0a6.72,6.72,0,0,1-.09,1.13,3.48,3.48,0,0,1-.71-.62,1.2,1.2,0,0,0-.53-.42.84.84,0,0,0-.71.24,7.14,7.14,0,0,1-.55.55,1.26,1.26,0,0,1-1,.21,3.48,3.48,0,0,1-.92-.47,1.38,1.38,0,0,0-1-.25c-.5.11-.76.64-1.17.94a1.44,1.44,0,0,1-1.73-.06c-.28-.23-.51-.6-.88-.62s-.6.28-.79.56a1.8,1.8,0,0,1-.56.6,7.54,7.54,0,0,1-.2-1.79v-.24h0a1.19,1.19,0,0,1,1.43-.26c.26.15.45.39.69.55a1.48,1.48,0,0,0,1.29.17,2.6,2.6,0,0,0,1.16-1c.21-.29.68-.22,1-.12a2.27,2.27,0,0,1,.91.56,1.82,1.82,0,0,0,1.07.64,1.25,1.25,0,0,0,1-.85,1,1,0,0,1,.31-.46.82.82,0,0,1,.35-.09,1.31,1.31,0,0,1,1,.16c.28.24.32.67.6.9Z" transform="translate(-25.82 -19.48)" fill="#fff" opacity="0.74"/><path d="M178.94,132.16a.41.41,0,0,1-.05.09,4.6,4.6,0,0,1-.66.85,3.21,3.21,0,0,1-.87-.08c-.44-.11-.85-.37-1.31-.45-1-.19-2,.49-3,.45a10.09,10.09,0,0,1-1.08-.17,1.7,1.7,0,0,0-1.07.13c-.19.12-.34.29-.53.41a4.74,4.74,0,0,1-.65-.76,2.65,2.65,0,0,0,1.12-.37,2,2,0,0,1,1.24-.5,2.21,2.21,0,0,1,.65.28,2.45,2.45,0,0,0,1.13.24,1.34,1.34,0,0,0,.65-.14c.14-.07.26-.18.4-.26a2.37,2.37,0,0,1,1-.25,1.62,1.62,0,0,1,.49,0,3,3,0,0,1,.72.41A2.5,2.5,0,0,0,178.94,132.16Z" transform="translate(-25.82 -19.48)" fill="#fff"/><circle cx="146.07" cy="108.08" r="0.72" fill="#fff"/><circle cx="149.25" cy="107.86" r="0.72" fill="#fff"/><circle cx="151.9" cy="107.53" r="0.72" fill="#fff"/><path d="M169.75,127.56a.73.73,0,0,1-.73.72.44.44,0,0,1-.16,0,12.25,12.25,0,0,1,.22-1.42A.73.73,0,0,1,169.75,127.56Z" transform="translate(-25.82 -19.48)" fill="#fff"/><path d="M169.74,131.12a.15.15,0,0,0-.07,0s0,.05,0,.08v.12a.22.22,0,0,0,0,.08c0,.07.11.09.18.09a1.62,1.62,0,0,0,.34-.1,3.65,3.65,0,0,1,1-.11c.06,0,.15,0,.18-.07s-.46-.32-.59-.33A2.4,2.4,0,0,0,169.74,131.12Z" transform="translate(-25.82 -19.48)" fill="#fff"/><path d="M173.52,130.81a.66.66,0,0,0-.35.23.12.12,0,0,0,0,.08s.08.06.13.06l1.52-.05c.15,0,.29-.12.25-.28s-.17-.17-.3-.18A3.06,3.06,0,0,0,173.52,130.81Z" transform="translate(-25.82 -19.48)" fill="#fff"/><path d="M177.24,130.5a2.8,2.8,0,0,0-.71.06c-.06,0-.13.05-.15.11a.18.18,0,0,0,.07.15.66.66,0,0,0,.4.15c.15,0,.3,0,.44,0a2,2,0,0,0,1,0s0,0,0,0-.17-.42-.31-.46A3,3,0,0,0,177.24,130.5Z" transform="translate(-25.82 -19.48)" fill="#fff"/><ellipse cx="168.64" cy="114.05" rx="4.98" ry="0.53" fill="url(#linear-gradient-22)"/><path d="M197.92,129.38v0a5.29,5.29,0,0,1-.07.92,4.15,4.15,0,0,1-.53,1.52l0,.07a3.75,3.75,0,0,1-.54.69,4.68,4.68,0,0,1-3.39,1.27,4.35,4.35,0,0,1-3-1,3.59,3.59,0,0,1-.54-.62,4.12,4.12,0,0,1-.59-1.36,6,6,0,0,1-.16-1.46v-.2a4.89,4.89,0,0,1,0-.54c0-.38.1-.77.18-1.16a8.76,8.76,0,0,1,2.56-4.75,2.61,2.61,0,0,1,1.65-.66C195.93,122.09,197.91,126.33,197.92,129.38Z" transform="translate(-25.82 -19.48)" fill="#245c93"/><path d="M197.92,129.38v0a5.37,5.37,0,0,1-.07.92c0,.1,0,.19,0,.27a5.5,5.5,0,0,1-.16.58,4.6,4.6,0,0,1-.32.67l0,.07-.06.09a3.91,3.91,0,0,1-.3.41l-.18.19a3.67,3.67,0,0,1-.86.65,4.42,4.42,0,0,1-1.21.47,5.68,5.68,0,0,1-1.32.15h-.25l-.66-.06a4,4,0,0,1-2.08-1,3.59,3.59,0,0,1-.54-.62,4.21,4.21,0,0,1-.59-1.36,6,6,0,0,1-.16-1.46v-.2a4.89,4.89,0,0,1,0-.54c0-.38.1-.77.18-1.16a11.34,11.34,0,0,1,.8-2.34,6.73,6.73,0,0,1,1.76-2.41l.07-.06a2.81,2.81,0,0,1,1.34-.59h.24a2.13,2.13,0,0,1,.79.15,2.47,2.47,0,0,1,.49.24,3,3,0,0,1,.54.41,5,5,0,0,1,.46.46,8.19,8.19,0,0,1,.53.71l.27.45c.14.24.26.48.38.74a11.1,11.1,0,0,1,.92,3.23h0c0,.08,0,.17,0,.25S197.92,129.17,197.92,129.38Z" transform="translate(-25.82 -19.48)" fill="url(#linear-gradient-23)"/><path d="M197.92,129.4a4.69,4.69,0,0,1-.64,2.51,4.94,4.94,0,0,1-2.94.88c-2.44,0-4.28-1.42-4.28-4.47a10.39,10.39,0,0,1,1.78-5.57,2.61,2.61,0,0,1,1.65-.66C195.94,122.09,197.92,126.35,197.92,129.4Z" transform="translate(-25.82 -19.48)" fill="#245c93"/><path d="M197.92,129.4a4.69,4.69,0,0,1-.64,2.51,4.94,4.94,0,0,1-2.94.88c-2.44,0-4.28-1.42-4.28-4.47a10.39,10.39,0,0,1,1.78-5.57,2.61,2.61,0,0,1,1.65-.66C195.94,122.09,197.92,126.35,197.92,129.4Z" transform="translate(-25.82 -19.48)" fill="url(#linear-gradient-24)"/><circle cx="165.75" cy="108.61" r="0.59" fill="#fff"/><path d="M189.82,128.09a.59.59,0,0,1-.58.59l-.14,0c0-.38.1-.77.18-1.16A.59.59,0,0,1,189.82,128.09Z" transform="translate(-25.82 -19.48)" fill="#fff"/><path d="M189.82,131a.1.1,0,0,0,0,0,.07.07,0,0,0,0,.06v.17c0,.05.09.07.15.07a1,1,0,0,0,.28-.08,3.15,3.15,0,0,1,.81-.09.18.18,0,0,0,.15,0c.1-.18-.37-.27-.48-.27A1.83,1.83,0,0,0,189.82,131Z" transform="translate(-25.82 -19.48)" fill="#fff"/><g opacity="0.52"><path d="M197.22,132a3.91,3.91,0,0,1-.3.41,9,9,0,0,0-.76-2.19,26.78,26.78,0,0,0-1.77-3,5,5,0,0,1-.83-1.79,3,3,0,0,1,.31-1.75,4.51,4.51,0,0,1,.8-1.14l.1-.11a3,3,0,0,1,.54.41,4.28,4.28,0,0,0-.94,1.8,3.77,3.77,0,0,0,.31,2.14,19.82,19.82,0,0,0,1,1.92,25.68,25.68,0,0,1,1.4,3Z" transform="translate(-25.82 -19.48)" fill="#fff"/><path d="M197.8,130.59a5.5,5.5,0,0,1-.16.58l-2.1-3.7a3.41,3.41,0,0,1-.59-1.68,3.29,3.29,0,0,1,.32-1.18,6.11,6.11,0,0,1,.5-1.26,8.19,8.19,0,0,1,.53.71c-.08.16-.18.32-.26.48a2.87,2.87,0,0,0-.29,1.55,6.81,6.81,0,0,0,1.06,2.48,18.48,18.48,0,0,1,.91,1.84Z" transform="translate(-25.82 -19.48)" fill="#fff"/><path d="M197.89,128.73a16.49,16.49,0,0,1-1.29-1.81,1.81,1.81,0,0,1-.24-.53,1.74,1.74,0,0,1,0-.51,8.09,8.09,0,0,1,.22-1.37c.14.24.26.48.38.74a.78.78,0,0,0-.09.21,1.23,1.23,0,0,0,0,.54,4.12,4.12,0,0,0,.37,1.33,7.78,7.78,0,0,0,.5.89l.16.26h0C197.88,128.56,197.88,128.65,197.89,128.73Z" transform="translate(-25.82 -19.48)" fill="#fff"/><path d="M195.88,133.25a4.42,4.42,0,0,1-1.21.47,10.49,10.49,0,0,0-1.1-3.41c-.42-.82-.95-1.59-1.37-2.42a5.19,5.19,0,0,1-.67-2.66,4.4,4.4,0,0,1,1-2.4,5,5,0,0,1,.73-.73h.24a2.13,2.13,0,0,1,.79.15c-.13.36-.71.82-.85,1a3.25,3.25,0,0,0-.73,1.7,4.81,4.81,0,0,0,.69,2.8c.47.86,1.07,1.65,1.53,2.51a9.21,9.21,0,0,1,.89,2.43A3,3,0,0,1,195.88,133.25Z" transform="translate(-25.82 -19.48)" fill="#fff"/><path d="M193.1,133.86l-.66-.06c-.09-1.44-1-2.67-1.61-4a8.94,8.94,0,0,1-.75-4.65,6.73,6.73,0,0,1,1.76-2.41l.07-.06a14.57,14.57,0,0,1-.41,1.41,9.54,9.54,0,0,0-.45,3.08c.13,1.57,1,3,1.73,4.38a4.44,4.44,0,0,1,.44,1.3A1.78,1.78,0,0,1,193.1,133.86Z" transform="translate(-25.82 -19.48)" fill="#fff"/></g><path d="M194.57,127.34a.61.61,0,0,0,.25.23c.32.14.6-.24.74-.56.36-.82.69-1.65,1-2.5l.36.5a4.12,4.12,0,0,0-.85-1.3,4.93,4.93,0,0,0-1.63-1.28,3.9,3.9,0,0,0-3,.13l0-.68a6.33,6.33,0,0,1,3.83,0,7.13,7.13,0,0,1,1.39.92l1.13.9a.62.62,0,0,1,.13,1,10.13,10.13,0,0,0-.79,5.46,20.62,20.62,0,0,1-4.71-.22,14.81,14.81,0,0,1-.26-3,5.94,5.94,0,0,0-.58-2.66c-.17-.32-.48-.61-.31-1a2.5,2.5,0,0,1,1.05-.76A19.54,19.54,0,0,0,194.57,127.34Z" transform="translate(-25.82 -19.48)" fill="url(#linear-gradient-25)"/><ellipse cx="162.9" cy="114.55" rx="6.11" ry="0.65" fill="url(#linear-gradient-26)"/><path d="M193,128.93v0a6.93,6.93,0,0,1-.09,1.14,5.25,5.25,0,0,1-.65,1.86l-.05.08a4.29,4.29,0,0,1-.66.85,5.75,5.75,0,0,1-4.15,1.55,5.34,5.34,0,0,1-3.68-1.26,4.34,4.34,0,0,1-.65-.76,4.89,4.89,0,0,1-.73-1.67,7.54,7.54,0,0,1-.2-1.79v-.24c0-.22,0-.44,0-.66a12,12,0,0,1,.23-1.42,10.7,10.7,0,0,1,3.13-5.84,3.22,3.22,0,0,1,2-.8C190.52,120,193,125.2,193,128.93Z" transform="translate(-25.82 -19.48)" fill="#245c93"/><path d="M193,128.93v0a6.93,6.93,0,0,1-.09,1.14,5.25,5.25,0,0,1-.65,1.86l-.05.08a4.29,4.29,0,0,1-.66.85,5.75,5.75,0,0,1-4.15,1.55,5.34,5.34,0,0,1-3.68-1.26,4.34,4.34,0,0,1-.65-.76,4.89,4.89,0,0,1-.73-1.67,7.54,7.54,0,0,1-.2-1.79v-.24c0-.22,0-.44,0-.66a12,12,0,0,1,.23-1.42,10.7,10.7,0,0,1,3.13-5.84,3.22,3.22,0,0,1,2-.8C190.52,120,193,125.2,193,128.93Z" transform="translate(-25.82 -19.48)" fill="url(#linear-gradient-27)"/><path d="M193,129a5.76,5.76,0,0,1-.79,3.08,6,6,0,0,1-3.6,1.08c-3,0-5.26-1.74-5.26-5.48a12.72,12.72,0,0,1,2.19-6.84,3.22,3.22,0,0,1,2-.8C190.53,120,193,125.22,193,129Z" transform="translate(-25.82 -19.48)" fill="#245c93"/><path d="M193,129a5.76,5.76,0,0,1-.79,3.08,6,6,0,0,1-3.6,1.08c-3,0-5.26-1.74-5.26-5.48a12.72,12.72,0,0,1,2.19-6.84,3.22,3.22,0,0,1,2-.8C190.53,120,193,125.22,193,129Z" transform="translate(-25.82 -19.48)" fill="url(#linear-gradient-28)"/><polygon points="157.12 105.24 158.27 105.63 159.85 104.95 161.19 105.63 162.55 104.95 163.81 105.78 165.11 104.95 166.35 105.36 166.66 106.32 165.29 105.76 163.49 106.57 162.35 105.76 161.06 106.64 159.65 105.63 157.98 106.86 156.8 106.17 157.12 105.24" fill="#245c93"/><polygon points="157.12 105.24 158.27 105.63 159.85 104.95 161.19 105.63 162.55 104.95 163.81 105.78 165.11 104.95 166.35 105.36 166.66 106.32 165.29 105.76 163.49 106.57 162.35 105.76 161.06 106.64 159.65 105.63 157.98 106.86 156.8 106.17 157.12 105.24" fill="#fff"/><path d="M193,128.93v0a6.93,6.93,0,0,1-.09,1.14,4.64,4.64,0,0,1-.71-.62,1.16,1.16,0,0,0-.53-.43.82.82,0,0,0-.71.25,7,7,0,0,1-.55.54,1.23,1.23,0,0,1-1,.21,3.34,3.34,0,0,1-.92-.47,1.38,1.38,0,0,0-1-.25c-.5.11-.76.64-1.17.94a1.44,1.44,0,0,1-1.73-.06c-.28-.23-.51-.59-.87-.61a1,1,0,0,0-.8.55,1.71,1.71,0,0,1-.56.6,7.54,7.54,0,0,1-.2-1.79v-.24h0a1.17,1.17,0,0,1,1.43-.25,7.23,7.23,0,0,1,.69.55,1.47,1.47,0,0,0,1.29.16,2.6,2.6,0,0,0,1.16-1c.21-.29.68-.22,1-.12a2.39,2.39,0,0,1,.91.56,1.73,1.73,0,0,0,1.07.64,1.25,1.25,0,0,0,1-.85A1,1,0,0,1,191,128a1,1,0,0,1,.35-.09,1.31,1.31,0,0,1,1,.17c.28.23.32.66.6.89Z" transform="translate(-25.82 -19.48)" fill="#fff" opacity="0.74"/><path d="M192.22,132l-.05.08a4.29,4.29,0,0,1-.66.85,2.76,2.76,0,0,1-.86-.08c-.45-.11-.86-.37-1.32-.45-1-.18-2,.49-3,.45a8.08,8.08,0,0,1-1.08-.17,1.64,1.64,0,0,0-1.07.14c-.19.11-.34.28-.53.4a4.34,4.34,0,0,1-.65-.76,2.74,2.74,0,0,0,1.13-.37,1.92,1.92,0,0,1,1.23-.49,2.09,2.09,0,0,1,.66.27,2.52,2.52,0,0,0,1.12.25,1.47,1.47,0,0,0,.65-.15c.14-.07.26-.18.4-.26a2.58,2.58,0,0,1,1-.25,1.34,1.34,0,0,1,.49,0,2.69,2.69,0,0,1,.72.4A2.55,2.55,0,0,0,192.22,132Z" transform="translate(-25.82 -19.48)" fill="#fff"/><circle cx="159.35" cy="107.87" r="0.72" fill="#fff"/><circle cx="162.53" cy="107.65" r="0.72" fill="#fff"/><circle cx="165.18" cy="107.32" r="0.72" fill="#fff"/><path d="M183,127.35a.72.72,0,0,1-.72.72h-.17a12,12,0,0,1,.23-1.42A.72.72,0,0,1,183,127.35Z" transform="translate(-25.82 -19.48)" fill="#fff"/><path d="M183,130.91s-.06,0-.07.05,0,0,0,.08v.12a.19.19,0,0,0,0,.08c0,.07.11.09.18.09a1.31,1.31,0,0,0,.34-.09,3.34,3.34,0,0,1,1-.12c.07,0,.15,0,.18-.07.12-.21-.46-.32-.59-.33A2.33,2.33,0,0,0,183,130.91Z" transform="translate(-25.82 -19.48)" fill="#fff"/><path d="M186.8,130.6a.66.66,0,0,0-.35.23.14.14,0,0,0,0,.09c0,.05.08.05.13.05l1.52-.05a.24.24,0,0,0,.25-.28c0-.15-.17-.17-.3-.18A3.06,3.06,0,0,0,186.8,130.6Z" transform="translate(-25.82 -19.48)" fill="#fff"/><path d="M190.52,130.3a2.41,2.41,0,0,0-.71,0c-.06,0-.13.05-.15.11a.2.2,0,0,0,.07.16.81.81,0,0,0,.41.15h.43a2.1,2.1,0,0,0,1,0l0,0c.13-.17-.17-.42-.31-.47A2.61,2.61,0,0,0,190.52,130.3Z" transform="translate(-25.82 -19.48)" fill="#fff"/><ellipse cx="202.17" cy="134.1" rx="0.65" ry="6.11" transform="matrix(0.18, -0.98, 0.98, 0.18, 8.03, 289.33)" fill="url(#linear-gradient-29)"/><path d="M207.26,129.86v0A6.66,6.66,0,0,1,207,131a5.4,5.4,0,0,1-1,1.72l-.07.07a4.53,4.53,0,0,1-.8.72,5.79,5.79,0,0,1-4.37.78,5.38,5.38,0,0,1-3.39-1.91,3.87,3.87,0,0,1-.5-.86,4.9,4.9,0,0,1-.42-1.77,7.63,7.63,0,0,1,.13-1.8c0-.08,0-.16,0-.24s.1-.43.16-.64a12.26,12.26,0,0,1,.48-1.36,10.77,10.77,0,0,1,4.13-5.18,3.27,3.27,0,0,1,2.14-.42C206.47,120.63,207.93,126.18,207.26,129.86Z" transform="translate(-25.82 -19.48)" fill="#245c93"/><path d="M207.26,129.86v0A6.66,6.66,0,0,1,207,131a5.4,5.4,0,0,1-1,1.72l-.07.07a4.53,4.53,0,0,1-.8.72,5.79,5.79,0,0,1-4.37.78,5.38,5.38,0,0,1-3.39-1.91,3.87,3.87,0,0,1-.5-.86,4.9,4.9,0,0,1-.42-1.77,7.63,7.63,0,0,1,.13-1.8c0-.08,0-.16,0-.24s.1-.43.16-.64a12.26,12.26,0,0,1,.48-1.36,10.77,10.77,0,0,1,4.13-5.18,3.27,3.27,0,0,1,2.14-.42C206.47,120.63,207.93,126.18,207.26,129.86Z" transform="translate(-25.82 -19.48)" fill="url(#linear-gradient-30)"/><path d="M207.26,129.88a5.8,5.8,0,0,1-1.33,2.89,6,6,0,0,1-3.73.41c-2.95-.54-4.86-2.66-4.19-6.34a12.81,12.81,0,0,1,3.38-6.33,3.27,3.27,0,0,1,2.14-.42C206.48,120.63,207.93,126.21,207.26,129.88Z" transform="translate(-25.82 -19.48)" fill="#245c93"/><path d="M207.26,129.88a5.8,5.8,0,0,1-1.33,2.89,6,6,0,0,1-3.73.41c-2.95-.54-4.86-2.66-4.19-6.34a12.81,12.81,0,0,1,3.38-6.33,3.27,3.27,0,0,1,2.14-.42C206.48,120.63,207.93,126.21,207.26,129.88Z" transform="translate(-25.82 -19.48)" fill="url(#linear-gradient-31)"/><polygon points="172.35 104.42 173.41 105.02 175.09 104.63 176.28 105.54 177.75 105.12 178.84 106.16 180.26 105.58 181.41 106.21 181.54 107.2 180.29 106.41 178.38 106.88 177.4 105.88 175.97 106.51 174.77 105.27 172.9 106.17 171.87 105.29 172.35 104.42" fill="#245c93"/><polygon points="172.35 104.42 173.41 105.02 175.09 104.63 176.28 105.54 177.75 105.12 178.84 106.16 180.26 105.58 181.41 106.21 181.54 107.2 180.29 106.41 178.38 106.88 177.4 105.88 175.97 106.51 174.77 105.27 172.9 106.17 171.87 105.29 172.35 104.42" fill="#fff"/><path d="M207.26,129.86v0A6.66,6.66,0,0,1,207,131a4,4,0,0,1-.58-.73,1.27,1.27,0,0,0-.45-.52.82.82,0,0,0-.74.12c-.22.13-.42.32-.65.43a1.28,1.28,0,0,1-1.05,0,3.56,3.56,0,0,1-.82-.64,1.36,1.36,0,0,0-.93-.42c-.5,0-.86.5-1.32.72a1.44,1.44,0,0,1-1.69-.37c-.23-.28-.39-.68-.75-.77a1,1,0,0,0-.88.4,1.68,1.68,0,0,1-.66.5,7.63,7.63,0,0,1,.13-1.8c0-.08,0-.16,0-.24h0a1.19,1.19,0,0,1,1.45,0c.23.19.37.46.58.67a1.49,1.49,0,0,0,1.24.39,2.66,2.66,0,0,0,1.32-.77c.26-.25.71-.1,1,.06a2.44,2.44,0,0,1,.79.71c.26.34.52.75.94.83a1.25,1.25,0,0,0,1.14-.65,1,1,0,0,1,.39-.4.92.92,0,0,1,.37,0,1.28,1.28,0,0,1,1,.34c.23.28.19.71.42,1Z" transform="translate(-25.82 -19.48)" fill="#fff" opacity="0.74"/><path d="M206,132.7l-.07.07a4.53,4.53,0,0,1-.8.72,3,3,0,0,1-.84-.23c-.42-.2-.77-.53-1.21-.69-.94-.36-2,.13-3-.08a9.9,9.9,0,0,1-1-.37,1.58,1.58,0,0,0-1.07-.06c-.21.08-.39.22-.6.3a3.87,3.87,0,0,1-.5-.86,2.66,2.66,0,0,0,1.17-.16,2,2,0,0,1,1.31-.27,2.52,2.52,0,0,1,.59.39,2.62,2.62,0,0,0,1.06.45,1.52,1.52,0,0,0,.67,0c.15,0,.29-.13.44-.19a2.63,2.63,0,0,1,1-.07,1.63,1.63,0,0,1,.49.09,2.86,2.86,0,0,1,.63.53A2.52,2.52,0,0,0,206,132.7Z" transform="translate(-25.82 -19.48)" fill="#fff"/><circle cx="174.07" cy="107.42" r="0.72" fill="#fff"/><circle cx="177.23" cy="107.77" r="0.72" fill="#fff"/><circle cx="179.9" cy="107.92" r="0.72" fill="#fff"/><path d="M197.78,126.51a.72.72,0,0,1-.84.58l-.16,0a12.26,12.26,0,0,1,.48-1.36A.71.71,0,0,1,197.78,126.51Z" transform="translate(-25.82 -19.48)" fill="#fff"/><path d="M197.14,130l-.08,0a.09.09,0,0,0,0,.07l0,.12s0,0,0,.08.09.11.16.12a1,1,0,0,0,.35,0,3.13,3.13,0,0,1,1,.07c.06,0,.15,0,.19,0s-.39-.4-.52-.43A2.24,2.24,0,0,0,197.14,130Z" transform="translate(-25.82 -19.48)" fill="#fff"/><path d="M200.91,130.39a.6.6,0,0,0-.39.16.13.13,0,0,0,0,.08c0,.05.07.07.12.08l1.51.23a.24.24,0,0,0,.3-.24c0-.15-.14-.19-.27-.23A3.05,3.05,0,0,0,200.91,130.39Z" transform="translate(-25.82 -19.48)" fill="#fff"/><path d="M204.62,130.76a2.45,2.45,0,0,0-.71-.07c-.06,0-.14,0-.16.08s0,.11,0,.16a.67.67,0,0,0,.37.22c.14,0,.28,0,.43.09a2,2,0,0,0,.93.21l0,0c.15-.14-.1-.45-.23-.51A2.51,2.51,0,0,0,204.62,130.76Z" transform="translate(-25.82 -19.48)" fill="#fff"/><path d="M120.86,203.67c-.44-3.63-.45-7.95-1.57-11.27-.89-2.62-4-5.18-5.75-7.27l-8.48-9.92L78.63,144.27s-8.93-2.69-9.56,10.32c-.48,9.65.44,19.46,1.15,29.08.51,6.9,1.87,14.15,1.56,21.05-.57,12.92-1.9,25.73-2,38.68a3.15,3.15,0,0,0,.17,1.3c.67,1.52,2.91,1.09,4.42.41.85-.39.65-10.2.73-11.48q.33-6,.58-12t.39-12c.09-3.45-.7-5.68,3.18-5.86,5.57-.27,11.14-.16,16.71-.07,1.82,0,4.88-.66,6,.93,1,1.44.5,5.62.52,7.35.13,10.8-1.83,21.7.14,32.44a32.77,32.77,0,0,0,6.86,0s-3.29-31.3-3.58-34.14c-.21-1.92-1.37-5.51.27-6.39.89-.47,3.35,0,4.35,0,3.37,0,5.8-.83,6.57,2.85.85,4,1,8.33,1.48,12.42l3,24.87a20.41,20.41,0,0,0,5.17-.4l-3.82-26.06-1.91-13C120.93,204.27,120.89,204,120.86,203.67Zm-46.51-9-.84-13.43H88.2l7.19,12.26Z" transform="translate(-25.82 -19.48)" fill="#245c93"/><path d="M80,146.33s-6.87-2.63-8.14,4.55.53,28.65.53,28.65h18.5L80.27,147.29" transform="translate(-25.82 -19.48)" fill="url(#linear-gradient-32)"/><path d="M155.29,234.91a4.59,4.59,0,0,0,1.06,1.57,5.22,5.22,0,0,0,3.49.81,33.27,33.27,0,0,0,9.4-1c-1.39-1.81-3.9-2.41-5.47-4.07a11.26,11.26,0,0,1-2.06-4,3.31,3.31,0,0,0-1.21-1.85,3.11,3.11,0,0,0-1.42-.32c-1.59-.09-5-.82-5.33,1.37S154.36,232.89,155.29,234.91Z" transform="translate(-25.82 -19.48)" fill="#f3a886"/><path d="M166.78,233.58a4.48,4.48,0,0,0-1.83-.38,5.63,5.63,0,0,0-1.07.21,20.69,20.69,0,0,1-8.29.4.86.86,0,0,0-.55,0c-.29.15-.31.56-.29.9a26.13,26.13,0,0,0,.86,4.72.79.79,0,0,0,.82.7l2.48.36a.44.44,0,0,0,.32,0,.42.42,0,0,0,.12-.26c.11-.52.21-1,.29-1.56.78.18.74,1.4,1.4,1.84a1.73,1.73,0,0,0,1,.21,50.26,50.26,0,0,0,10.41-.42.9.9,0,0,0,.62-.3.92.92,0,0,0,.1-.32,3.69,3.69,0,0,0-.49-2.38C171.36,235.23,168.94,234.37,166.78,233.58Z" transform="translate(-25.82 -19.48)" fill="#282b2d"/><path d="M145,237.18a4.39,4.39,0,0,0,1.07,1.57,5.21,5.21,0,0,0,3.49.81,32.84,32.84,0,0,0,9.39-1c-1.39-1.81-3.9-2.4-5.47-4.07a11.18,11.18,0,0,1-2.06-4,3.26,3.26,0,0,0-1.21-1.85,3.11,3.11,0,0,0-1.42-.32c-1.58-.09-5-.82-5.32,1.37S144.08,235.16,145,237.18Z" transform="translate(-25.82 -19.48)" fill="#f3a886"/><path d="M156.51,235.85a4.89,4.89,0,0,0-1.84-.38,5.78,5.78,0,0,0-1.07.21,20.68,20.68,0,0,1-8.29.4.83.83,0,0,0-.54,0c-.3.15-.32.56-.29.9a24.6,24.6,0,0,0,.86,4.73.78.78,0,0,0,.81.69l2.49.37a.47.47,0,0,0,.31,0,.4.4,0,0,0,.12-.26c.11-.51.21-1,.29-1.55.78.17.74,1.4,1.41,1.84a1.79,1.79,0,0,0,.95.2,50.32,50.32,0,0,0,10.41-.42.84.84,0,0,0,.61-.3.81.81,0,0,0,.1-.31,3.64,3.64,0,0,0-.49-2.39C161.08,237.51,158.66,236.64,156.51,235.85Z" transform="translate(-25.82 -19.48)" fill="#282b2d"/><path d="M163,215.49l-5.31-20.09a46.67,46.67,0,0,0-3-9,22.58,22.58,0,0,0-14.55-11.84,35.61,35.61,0,0,0-7.14-.83c-3.34-.12-6.69-.1-10-.08a31.81,31.81,0,0,0-5.52.37,42.15,42.15,0,0,0-5.35,1.61,62.25,62.25,0,0,1-25.25,2.8,53.5,53.5,0,0,0,1.53,6.33A13.31,13.31,0,0,0,90.65,190,14,14,0,0,0,92.92,192a12.56,12.56,0,0,0,2.47,1.53,11.62,11.62,0,0,0,3.22.68,105.63,105.63,0,0,0,16.2.52,40.08,40.08,0,0,1,5.11.54c2.13.19,4.41.45,6,1.83s2.21,3.51,3,5.45c1,2.29,2.28,4.41,3.37,6.64,3,6,4.27,12.75,5.34,19.4a2.21,2.21,0,0,0,.44,1.18,2,2,0,0,0,.89.5c3.24,1.06,6.75.51,10.16.53,3.82,0,8,.72,11.21-1.3a9,9,0,0,0,4-6.56C164.68,220.27,163.64,218,163,215.49Z" transform="translate(-25.82 -19.48)" fill="#245c93"/><path d="M164.41,222.27c0,.21,0,.42,0,.63a9,9,0,0,1-4,6.57c-3.25,2-7.4,1.32-11.22,1.3-3.41,0-6.92.53-10.16-.54a2.16,2.16,0,0,1-.89-.49,2.35,2.35,0,0,1-.43-1.19c-1.08-6.64-2.37-13.35-5.34-19.39-1.1-2.23-2.42-4.35-3.37-6.65-.81-1.93-1.43-4.08-3-5.44s-3.9-1.64-6-1.83a36.92,36.92,0,0,0-5.11-.54,105.73,105.73,0,0,1-16.21-.53,11.78,11.78,0,0,1-3.22-.68A12.27,12.27,0,0,1,92.93,192,12.84,12.84,0,0,1,90.66,190a13.42,13.42,0,0,1-2.34-5.2,55.2,55.2,0,0,1-1.53-6.34,66.41,66.41,0,0,0,10.83.08,59.58,59.58,0,0,0,14.43-2.88,39.66,39.66,0,0,1,5.35-1.6,30.75,30.75,0,0,1,5.51-.37c3.35,0,6.7-.05,10.05.08a35.6,35.6,0,0,1,7.13.83,22.56,22.56,0,0,1,14.56,11.84,47,47,0,0,1,3,8.94q2.64,10,5.3,20.09C163.59,217.84,164.51,219.92,164.41,222.27Z" transform="translate(-25.82 -19.48)" fill="url(#linear-gradient-33)"/><path d="M164.41,222.27c-2.17.18-4.47-.05-6.66-.07-3.41,0-6.93.54-10.16-.53a2,2,0,0,1-.89-.5,2.21,2.21,0,0,1-.44-1.18c-1.07-6.65-2.37-13.36-5.34-19.4-1.09-2.23-2.41-4.35-3.37-6.64-.81-1.94-1.42-4.08-3-5.45s-3.91-1.63-6-1.83a40.27,40.27,0,0,0-5.11-.54,105.59,105.59,0,0,1-16.2-.52,11.62,11.62,0,0,1-3.22-.68,12.11,12.11,0,0,1-2.47-1.53,13.61,13.61,0,0,1-2.27-1.94,8.94,8.94,0,0,1-1.6-2.9,59.58,59.58,0,0,0,14.43-2.88,39.66,39.66,0,0,1,5.35-1.6,30.75,30.75,0,0,1,5.51-.37c3.35,0,6.7-.05,10.05.08a35.6,35.6,0,0,1,7.13.83,22.56,22.56,0,0,1,14.56,11.84,47,47,0,0,1,3,8.94q2.64,10,5.3,20.09C163.59,217.84,164.51,219.92,164.41,222.27Z" transform="translate(-25.82 -19.48)" fill="url(#linear-gradient-34)"/><path d="M165.48,248.94a1,1,0,0,1-.91-.6c-1.13-2.58-27.53-63.13-28.6-67.18a7.27,7.27,0,0,0-8-5.6,2,2,0,0,0-1.54.85c-.92,1.38-.42,4.13-.14,5.08a1,1,0,1,1-1.92.56c-.13-.44-1.21-4.35.4-6.75a4,4,0,0,1,3-1.73,9.3,9.3,0,0,1,10.16,7.08c.83,3.12,19,45.12,28.5,66.89a1,1,0,0,1-.52,1.31A.93.93,0,0,1,165.48,248.94Z" transform="translate(-25.82 -19.48)" fill="#245c93"/><path d="M165.61,137.74a4.17,4.17,0,0,1-3.21,3.18,8.55,8.55,0,0,1,3.71,1.27,3,3,0,0,1,1.13,3.47c-.62,1.25-2.23,1.58-3.62,1.71-13.93,1.34-27.85-2-41.32-5.81-2.58-.72-6.46-2.75-4.21-6,1.73-2.51,5-.87,7.41-.24a101.34,101.34,0,0,0,40.11,2.42Z" transform="translate(-25.82 -19.48)" fill="#f3a886"/><rect x="106.68" y="127.81" width="215.05" height="4.12" fill="#245c93"/><rect x="106.68" y="127.81" width="215.05" height="4.12" fill="url(#linear-gradient-35)"/><path d="M191.06,198.45c16.46,10.55,36,15.11,55.2,18.74a24.07,24.07,0,0,0,6.43.61c2.88-.26,5.55-1.53,8.16-2.79l34.08-16.44c4.62-2.24,9.32-4.51,13.18-7.9,6.68-5.85,9.62-14,13.92-21.48,3.5-6.11,5.75-13.54,11.45-18.07,1.53-1.22,3.22-2.24,4.81-3.37a1.14,1.14,0,0,0-.75-2.06c-35.46,2.55-189.2,1.19-190.76,1-10.33-1,10.33,17.87,16.77,25.9C171.44,182.48,180.39,191.61,191.06,198.45Z" transform="translate(-25.82 -19.48)" fill="#245c93"/><path d="M191.06,198.45c16.46,10.55,36,15.11,55.2,18.74a24.07,24.07,0,0,0,6.43.61c2.88-.26,5.55-1.53,8.16-2.79l34.08-16.44c4.62-2.24,9.32-4.51,13.18-7.9,6.68-5.85,9.62-14,13.92-21.48,3.5-6.11,5.75-13.54,11.45-18.07,1.53-1.22,3.22-2.24,4.81-3.37a1.14,1.14,0,0,0-.75-2.06c-35.46,2.55-189.2,1.19-190.76,1-10.33-1,10.33,17.87,16.77,25.9C171.44,182.48,180.39,191.61,191.06,198.45Z" transform="translate(-25.82 -19.48)" fill="url(#linear-gradient-36)"/><path d="M120.15,171.36a5.46,5.46,0,0,1-1.31,3.48,6.24,6.24,0,0,1-3.21,1.37,110,110,0,0,1-30.17,2.19c.12-4.77-3.3-8.85-4.49-13.46a38.42,38.42,0,0,1-.73-8.31,66,66,0,0,0-1.61-12.36c-.81-3.51-1.9-7.15-1-10.64a13,13,0,0,1,5.15-7c8.88-6.46,20-3.22,27,4.38,5.55,6.05,3.44,15.29,5.93,22.65C117.63,159.38,120.68,165.1,120.15,171.36Z" transform="translate(-25.82 -19.48)" fill="#245c93"/><path d="M117,175.94c-2.24-.2-4.13-1.69-5.87-3.13L94.56,159.17A3.11,3.11,0,0,1,93,160.31a1.11,1.11,0,0,0-1-.61q1.91,8.85,4.58,17.52A5.4,5.4,0,0,1,91.23,175,14.93,14.93,0,0,1,89,169.34a36.38,36.38,0,0,1-1.16-7,35.8,35.8,0,0,0-.23-4.86,27,27,0,0,0-2.34-6,34.46,34.46,0,0,1-2.87-10.91,1.48,1.48,0,0,1,.12-1c.41-.67,1.43-.4,2.11,0,6.62,3.78,10.2,11.18,15.63,16.53,5.72,5.62,13.47,8.95,18.78,15a4.38,4.38,0,0,1,1.31,2.53,2.63,2.63,0,0,1-2.44,2.58,3.17,3.17,0,0,1-3-2.07" transform="translate(-25.82 -19.48)" fill="url(#linear-gradient-37)"/><path d="M113.72,170.29c2.7,1.65,5.5,3.22,7.68,5.5a12.08,12.08,0,0,0,1.62,1.58c1.39,1,3.22,1.15,4.93,1.25,2,.11,4.75-.31,5-2.32a4.16,4.16,0,0,0-.6-2.23c-1-2.14-2.22-4.41-4.31-5.56-1.35-.74-2.94-.92-4.37-1.52a15.71,15.71,0,0,1-2.78-1.66l-14.14-9.84c-5.21-3.62-10.47-7.3-14.59-12.11-.42-.49-2.34,2.57-2.46,2.87a5.54,5.54,0,0,0,0,4.14c1.13,2.33,4.48,4.63,6.36,6.41A109.82,109.82,0,0,0,113.72,170.29Z" transform="translate(-25.82 -19.48)" fill="#f3a886"/><path d="M121.32,131.39a1.89,1.89,0,0,1,1.05.53,1.7,1.7,0,0,1,.29.85,27.67,27.67,0,0,1,.27,6.1,3.26,3.26,0,0,1-1.09,2.65,3.38,3.38,0,0,1-2.41.22,86.7,86.7,0,0,1-9.3-2.07,24,24,0,0,1-6-2.36,5.57,5.57,0,0,1-1.79-1.55,6.85,6.85,0,0,1-.75-1.68,13,13,0,0,1-.94-4.36c0-1.4.8-3.74,2.44-4s4.07,1.3,5.57,1.82Q114.93,129.75,121.32,131.39Z" transform="translate(-25.82 -19.48)" fill="#245c93"/><path d="M91.24,155.42a2.61,2.61,0,0,0,1.83.81,2.42,2.42,0,0,0,1.07-.51,15.9,15.9,0,0,0,5.07-6.14,1.65,1.65,0,0,0,.14-1.47,1.89,1.89,0,0,0-.78-.61c-3.07-1.7-4.51-5.24-6.11-8.37s-4.06-6.4-7.56-6.6c-5.63-.33-7.33,6-5.2,10.08C82.44,147.88,86.69,151.71,91.24,155.42Z" transform="translate(-25.82 -19.48)" fill="#245c93"/><path d="M89.08,124.13c1,3.55,6.93,5.94,10.1,5.87a1.19,1.19,0,0,0,.74-.21c.31-.27.25-.76.18-1.17a22.18,22.18,0,0,1-.21-5.87.83.83,0,0,1,1-1c2.19.23,4.45.84,6.52.11a5.36,5.36,0,0,0,3.24-3.27,10,10,0,0,0,.28-3.93,86.32,86.32,0,0,0-1.3-10.38A19.45,19.45,0,0,0,108,98.86,7.93,7.93,0,0,0,104,95a12,12,0,0,0-4.18-.54c-3.25,0-6.62-.06-9.58,1.29a7.57,7.57,0,0,0-4.37,4.76,10.06,10.06,0,0,0,.35,4.92c1.5,5.85,3.83,10.83,2.8,17A3.9,3.9,0,0,0,89.08,124.13Z" transform="translate(-25.82 -19.48)" fill="#f3a886"/><path d="M82.33,101.23c-.43,2,0,4-.47,6a9.11,9.11,0,0,1-1.94,3.83c-.6.72-1.33,1.52-1.21,2.45.16,1.23,1.63,1.75,2.85,2a2,2,0,0,0,3.34,1.67l.51,1.37A3,3,0,0,0,88,118a2.92,2.92,0,0,0,.59,1.33,5.42,5.42,0,0,0,1.29-1.45,2.64,2.64,0,0,0,2.89-.53L91.24,115a3.23,3.23,0,0,0-.57-.7,3.68,3.68,0,0,0-1-.54,3.85,3.85,0,0,1-2.5-2.87c-.14-1.32,1.23-2.72,2.46-2.22a2.82,2.82,0,0,1,1.08,1,13.83,13.83,0,0,1,1.85,3.09l.82-.06c-.57-1.09.92-2.26.77-3.47a3.2,3.2,0,0,0-.54-1.19,8,8,0,0,1-1.08-3.43,3,3,0,0,1-3.67-1.27c-.76-1.16-1.22-3.6-.52-4.89a20.06,20.06,0,0,1,3.34-3.24C88.92,93.79,82.81,99.06,82.33,101.23Z" transform="translate(-25.82 -19.48)" fill="#e5d6cc"/><path d="M106.87,112.45a4.81,4.81,0,0,0-1.57,1,2.75,2.75,0,0,0-1.17,2.45l7.12-1.42a.44.44,0,0,0,.25-.11.39.39,0,0,0,.06-.26v-.89a1.3,1.3,0,0,0-.23-.91c-.45-.48-1.43-.39-2-.3A13.45,13.45,0,0,0,106.87,112.45Z" transform="translate(-25.82 -19.48)" fill="#e5d6cc"/><path d="M348.11,162a24.14,24.14,0,0,1-11.8-9.12,6.47,6.47,0,0,0-1.44-1.72,5.54,5.54,0,0,0-2.1-.77c-1.54-.33-3-.79-4.56-1.15s-3.28-.25-4.9-.71a4.73,4.73,0,0,1-2.5-1.4,2,2,0,0,1,0-2.64,3,3,0,0,1,1-.51,18,18,0,0,1,10.9,0,3.14,3.14,0,0,1,.51-2.15,11.45,11.45,0,0,1,3.11,2.06,14.35,14.35,0,0,1,2.85,2.87,12.9,12.9,0,0,0,.78,1.15,6.61,6.61,0,0,0,1.21,1,37,37,0,0,0,6.48,3.94c3.09,1.35,7.23,2,10-.25q3.38-2.74,6.63-5.61c1.1-1,1.7-2.15,2.91-1.37a5.4,5.4,0,0,1,1.35,2c1.13,2.91-1.64,7.65-3.21,10.1a11.86,11.86,0,0,1-6.55,5.26,12.79,12.79,0,0,1-4.23.34A23.32,23.32,0,0,1,348.11,162Z" transform="translate(-25.82 -19.48)" fill="#f3a886"/><path d="M367.07,156.81a2.6,2.6,0,0,1-1.83.82,2.41,2.41,0,0,1-1.08-.52A15.86,15.86,0,0,1,359.1,151a1.62,1.62,0,0,1-.15-1.47,1.89,1.89,0,0,1,.78-.61c3.07-1.7,4.52-5.24,6.11-8.37s4.06-6.4,7.57-6.6c5.62-.33,7.32,6,5.2,10.08C375.87,149.28,371.61,153.11,367.07,156.81Z" transform="translate(-25.82 -19.48)" fill="#245c93"/><rect x="176.14" y="213.59" width="68.51" height="1.59" rx="0.8" fill="#245c93"/><path d="M327.77,243.56a2.57,2.57,0,0,1-.87,2,2.75,2.75,0,0,1-1.42.32q-9.23.33-18.43.56a1.29,1.29,0,0,1-.48-.06.81.81,0,0,1-.39-.54,2.51,2.51,0,0,1,.86-2.46,7.06,7.06,0,0,1,2.42-1.25q3.71-1.32,7.5-2.35c2.86-.78,5.86-1.43,8.78-.93C328.28,239.25,328,241.48,327.77,243.56Z" transform="translate(-25.82 -19.48)" fill="#282b2d"/><path d="M331,244.27a13.27,13.27,0,0,0-2.08,1.95,2.52,2.52,0,0,0-.35,2.67c.65,1.1,2.19,1.16,3.46,1.07,5.33-.39,11-1.29,15-4.79a6.14,6.14,0,0,0,2.24-3.43,5.41,5.41,0,0,0-1.27-4.1,3.37,3.37,0,0,0-1.48-1.19,4.21,4.21,0,0,0-2.47.19c-2.73.77-6.74,1.16-9.14,2.66C333.16,240.42,332.86,243,331,244.27Z" transform="translate(-25.82 -19.48)" fill="#282b2d"/><ellipse cx="213.32" cy="84.29" rx="23.86" ry="7.28" fill="#245c93"/><ellipse cx="213.32" cy="83.43" rx="23.86" ry="7.28" fill="#fff"/><ellipse cx="242.67" cy="111.49" rx="23.86" ry="7.28" fill="#245c93"/><ellipse cx="242.67" cy="110.63" rx="23.86" ry="7.28" fill="#fff"/><path d="M222.89,105.9a22.74,22.74,0,0,0,11.86,1.21c.93-.15,1.85-.37,2.78-.48a30.53,30.53,0,0,1,4.17-.11q4.32.06,8.63-.22a8.93,8.93,0,0,0,4.78-1.26,3.49,3.49,0,0,1,.65-.43,2.56,2.56,0,0,1,.73-.15,12.24,12.24,0,0,0,5-1.11l-4.4-1.3a.86.86,0,0,1-.44-.24,1.25,1.25,0,0,1-.15-.61c-.14-1-1.4-1.5-2.44-1.72a1.2,1.2,0,0,0-.76-1.37,3.49,3.49,0,0,0-1.7-.14l-20,1.66a21.35,21.35,0,0,0-7.56,2C222.24,102.49,220,104.77,222.89,105.9Z" transform="translate(-25.82 -19.48)" fill="url(#linear-gradient-38)"/><path d="M221.63,97.12a1.28,1.28,0,0,0-.44.32.78.78,0,0,0-.09.6c.16.78.89,1.29,1.39,1.91a4.75,4.75,0,0,1,.81,1.64c.09.32.22.72.55.79a.61.61,0,0,0,.63-.35,1.77,1.77,0,0,0,.14-.76,10,10,0,0,0-.85-5.31C222.89,95.73,222.35,96.74,221.63,97.12Z" transform="translate(-25.82 -19.48)" fill="#245c93"/><path d="M221.63,97.12a1.28,1.28,0,0,0-.44.32.78.78,0,0,0-.09.6c.16.78.89,1.29,1.39,1.91a4.75,4.75,0,0,1,.81,1.64c.09.32.22.72.55.79a.61.61,0,0,0,.63-.35,1.77,1.77,0,0,0,.14-.76,10,10,0,0,0-.85-5.31C222.89,95.73,222.35,96.74,221.63,97.12Z" transform="translate(-25.82 -19.48)" fill="url(#linear-gradient-39)"/><path d="M224.29,92a7.88,7.88,0,0,1,3.64-2,62,62,0,0,1,6.46-1.56L241.48,87a65.36,65.36,0,0,1,9.91-1.51,4.91,4.91,0,0,1,2.58.36A1.92,1.92,0,0,1,255,88,18.6,18.6,0,0,1,261,84.61a1.21,1.21,0,0,1,.77-.08c.44.15.56.72.55,1.19-.05,2.92-2.14,5.43-4.5,7.14-1.39,1-3,1.93-3.74,3.48-1,2.07-.27,4.87-1.86,6.54-1.08,1.14-2.81,1.26-4.38,1.32l-10.46.36c-3.5.12-7.6.88-11.06.37-3.21-.47-2.14-2.38-2.6-4.9C223.2,97.34,222.19,94.36,224.29,92Z" transform="translate(-25.82 -19.48)" fill="#245c93"/><path d="M247.51,92.42c-1.1,1.48-1.6,3.31-2.54,4.9,1.59.56,3.58,1,4.77-.15.71-.7.9-1.82,1.65-2.49a5.25,5.25,0,0,1,2.54-.91A10.83,10.83,0,0,0,260,90a3.86,3.86,0,0,1-2,2.69,16.61,16.61,0,0,0-3,1.88c-1.34,1.29-1.73,3.25-2.26,5s-1.42,3.71-3.17,4.34a6.93,6.93,0,0,1-2.49.24,91.24,91.24,0,0,0-15,1,19.2,19.2,0,0,1-3.93.33,5.44,5.44,0,0,1-3.57-1.47,1.22,1.22,0,0,1-.27-.37,1.37,1.37,0,0,1,0-.57l.32-3.83a.89.89,0,0,1,.11-.43c.26-.38.89-.13,1.15.26s.4.89.81,1.11l.07-1.26a.79.79,0,0,1,.11-.43.81.81,0,0,1,.53-.25,13.87,13.87,0,0,0,6.35-3.16c-1.13-.56-1-2.39-.06-3.18a3.83,3.83,0,0,1,3.61-.3c1.19.42,2.25,1.13,3.44,1.57a19.2,19.2,0,0,0-6.5-1.13,1,1,0,0,0-.73.21,1,1,0,0,0-.17.78,9.67,9.67,0,0,0,2.34,5.57,4.12,4.12,0,0,1,.77,1,7.82,7.82,0,0,1,.28,1.36,2.64,2.64,0,0,0,2,2.08,2.06,2.06,0,0,0,2.34-1.52c.23-1.27-.88-2.32-1.73-3.29a10.64,10.64,0,0,1-2.07-3.66,10.86,10.86,0,0,1,3,.65,3.69,3.69,0,0,1,2.13,2.11c.71,0,1.13-.75,1.45-1.38,2.09-4,6-5.26,9.58-7.48A12.39,12.39,0,0,0,247.51,92.42Z" transform="translate(-25.82 -19.48)" fill="url(#linear-gradient-40)"/><path d="M261.38,83.53a.63.63,0,0,0,.23-.23.77.77,0,0,0,0-.45,6.12,6.12,0,0,1-.11-1.48,1.76,1.76,0,0,1,.63-1.28,1.34,1.34,0,0,1,1.19-.2,1.31,1.31,0,0,1,.84.87,1.27,1.27,0,0,1,1.35.5.9.9,0,0,1-.37,1.28,2.81,2.81,0,0,1,1.06.9,1.26,1.26,0,0,1,0,1.32,1.72,1.72,0,0,1-1.67.5,1.62,1.62,0,0,0-.58,0,1.85,1.85,0,0,0-.39.15,5.4,5.4,0,0,0-1.27,1,16.27,16.27,0,0,1-1.23,1.26,1.84,1.84,0,0,1-1.65.41c-.7-.24-1.85-1.56-1.12-2.19C259.31,85,260.39,84.3,261.38,83.53Z" transform="translate(-25.82 -19.48)" fill="#fff"/><path d="M246.81,91.89a1.28,1.28,0,0,1,.4-.86c.68-.89,1-2.08,1.78-2.85,1-.92,2.44-1,3.78-1,.57,0,2-.16,1.94.72s-1.66,1.16-2.22,1.42S246.77,91.59,246.81,91.89Z" transform="translate(-25.82 -19.48)" fill="url(#linear-gradient-41)"/><path d="M237.5,94.36a.28.28,0,0,0-.18,0c-.1.08,0,.25,0,.36L238,96.1a7.59,7.59,0,0,0,.68,1.17,21.3,21.3,0,0,1,1.65,1.91,5.79,5.79,0,0,1-.54-2.62.55.55,0,0,1,.1-.38.69.69,0,0,1,.37-.19,2.07,2.07,0,0,0,1.57-1.6.59.59,0,0,0-.63-.68c-.29.05-.37.37-.62.51a2.94,2.94,0,0,1-1.42.13Z" transform="translate(-25.82 -19.48)" fill="url(#linear-gradient-42)"/><path d="M174.16,145.17c3.33,2.24,7.77,2.09,11.62,2q3.33-.09,6.66-.22c2.52-.11,5.15-.28,7.36-1.52a16.88,16.88,0,0,0,3.49-2.89c2.5-2.49,4.37-4.32,5.55-7.66.74-2.13.93-4.72-2-4.72l-23,.06-13.37,0c-1.54,0-4.45-.26-5.42,1.29s1,4.34,1.77,5.78a22.62,22.62,0,0,0,7.33,7.83Z" transform="translate(-25.82 -19.48)" fill="#245c93"/><path d="M209,134.39l-.15.47c-1.17,3.34-3.05,5.17-5.55,7.65a16.67,16.67,0,0,1-3.49,2.9c-2.21,1.23-4.83,1.4-7.36,1.51-2.22.09-4.44.16-6.65.23-3.86.11-8.29.26-11.63-2l-.07,0a22.75,22.75,0,0,1-7.33-7.84c-.38-.72-1.08-1.74-1.56-2.79a3.2,3.2,0,0,1-.21-3c1-1.56,3.89-1.29,5.43-1.29l13.36,0,23-.06C209.57,130.13,209.59,132.37,209,134.39Z" transform="translate(-25.82 -19.48)" fill="url(#linear-gradient-43)"/><path d="M209,134.39l-.15.47c-1.17,3.34-3.05,5.17-5.55,7.65a16.67,16.67,0,0,1-3.49,2.9c-2.21,1.23-4.83,1.4-7.36,1.51-2.22.09-4.44.16-6.65.23l-1.52,0c-3.47.07-7.2-.07-10.11-2l-.07,0a22.75,22.75,0,0,1-7.33-7.84c-.38-.72-1.08-1.74-1.56-2.79,1.14-1.25,3.78-1,5.22-1h1.68l11.68,0,23-.06A2.27,2.27,0,0,1,209,134.39Z" transform="translate(-25.82 -19.48)" fill="url(#linear-gradient-44)"/><path d="M184.27,147.19c-3.47.07-7.2-.07-10.11-2l-.07,0a22.75,22.75,0,0,1-7.33-7.84c-.38-.72-1.08-1.74-1.56-2.79,1.14-1.25,3.78-1,5.22-1h1.68l3.34.11S177.76,143.58,184.27,147.19Z" transform="translate(-25.82 -19.48)" fill="url(#linear-gradient-45)"/><path d="M253.78,124.27a9.45,9.45,0,0,1,2.83-1.57,20.65,20.65,0,0,1,5.56-1.64,7.29,7.29,0,0,1,5.46,1.46c1.27-1.34,3.36-1.49,5.19-1.19s3.61,1,5.46.89a24.63,24.63,0,0,1,2.84-.19,2.52,2.52,0,0,1,2.26,1.46c.16.46.11,1,.23,1.43.48,2,3.45,2.5,4.2,4.44.67,1.76-1,3.66-2.77,4.18s-3.74.16-5.62.22c-3,.09-5.85,1.24-8.83,1.58-5.92.7-11.71-1.82-17.15-4.27a6.3,6.3,0,0,1-2.05-1.27,2.14,2.14,0,0,1-.57-2.22c.36-.86,1.26-.59,1.74-1.12S253.08,124.89,253.78,124.27Z" transform="translate(-25.82 -19.48)" fill="#245c93"/><path d="M278.26,127.17c-.88,1.25-2.63,1.44-4.15,1.37s-3.17-.28-4.47.51a2.82,2.82,0,0,1-.72.4,2,2,0,0,1-.74,0,13,13,0,0,1-3.75-.87,9,9,0,0,0-2.38-.78c-.58,0-1.16,0-1.73,0-2.1,0-3.9-1.41-5.53-2.72a5.46,5.46,0,0,1-2.5,2.65c-.44.22-1,.49-1,1a1,1,0,0,0,.15.47c.72,1.25,2.31,1.6,3.66,2.07s2.39,1,3.6,1.5c4.13,1.63,8.7,1.64,13.13,1.42,4.12-.2,8.24-.57,12.32-1.12a2.49,2.49,0,0,0,1.2-.37,2.41,2.41,0,0,0,.64-.84c.53-.95,1.06-2.1.55-3-.4-.76-1.32-1.07-1.95-1.66a8.47,8.47,0,0,1-1.48-2.54,2.71,2.71,0,0,0-2.21-1.73.87.87,0,0,0-.68.3c-.21.28-.12.66-.16,1-.07.57-.51.84-.85,1.25S278.63,126.64,278.26,127.17Z" transform="translate(-25.82 -19.48)" fill="url(#linear-gradient-46)"/><path d="M182.92,231.83a4.18,4.18,0,0,0,1.94,2.71,4.68,4.68,0,0,0,1.29.31q4.89.68,9.82.87a4.32,4.32,0,0,0,2.52-.41,2.85,2.85,0,0,0,.95-3.37,5.32,5.32,0,0,0-2.6-2.65c-1.12-.59-2.34-1-3.5-1.46-2-.86-3.78-2.15-5.89-2.49-1.36-.22-4.17-.33-5,1S182.52,230.54,182.92,231.83Z" transform="translate(-25.82 -19.48)" fill="#282b2d"/><path d="M76.08,229.84a76.51,76.51,0,0,0-7.7,20,35.59,35.59,0,0,0,17.74-7.55c2.19-1.76,5.28-3.85,7.44-2.06a16.76,16.76,0,0,1,1.81,2.42c1.32,1.58,3.53,2,5.57,2.26a114.66,114.66,0,0,0,27.46.2c.23,3.06,4.32,3.87,7.4,3.81l27.83-.52a21.69,21.69,0,0,0,7.45-1c2.63-1,4.75-3,7.14-4.45,5.7-3.52,12.68-4.12,19.38-4.43q12.24-.57,24.51-.29c29.16.68,58.15,5,86.58,11.54,10.2,2.35,20.51,5,31,4.56,12.28-.5,24.62-5.22,36.6-2.48,3,.68,5.89,1.82,8.94,2s6.44-.88,8-3.54l-1.54-2.81c2.51-1.78,4.94-5.28,7.44-7.06a3.88,3.88,0,0,0,1.5-1.56c1.07-2.63-3.38-3.66-6.16-3.05-33.08,7.25-67.17-2.64-100.92-5.34-10.53-.84-21.11-1-31.67-1.08C199,228.8,138.85,227.36,76.08,229.84Z" transform="translate(-25.82 -19.48)" fill="url(#linear-gradient-47)"/></svg>